<svg width="68" height="68" viewBox="0 0 68 68" fill="none" xmlns="http://www.w3.org/2000/svg">
<circle cx="34" cy="34" r="33.5" fill="#F6F6F6" stroke="#C8C8C8"/>
<path d="M41.3302 45.997C39.9087 47.3162 38.3567 47.1079 36.8626 46.483C35.2816 45.8442 33.8311 45.8164 32.163 46.483C30.0743 47.344 28.9719 47.0941 27.7244 45.997C20.6459 39.0117 21.6903 28.3742 29.7261 27.9854C31.6843 28.0826 33.0478 29.013 34.1937 29.0963C35.9053 28.763 37.5444 27.8048 39.372 27.9298C41.5623 28.0965 43.2159 28.9297 44.3038 30.4295C39.7782 33.0264 40.8515 38.734 45 40.331C44.1732 42.4141 43.0998 44.4833 41.3157 46.0109L41.3302 45.997ZM34.0486 27.902C33.8311 24.8052 36.4565 22.25 39.4736 22C39.8942 25.5829 36.0794 28.2492 34.0486 27.902Z" fill="black"/>
</svg>
