<svg width="27" height="21" viewBox="0 0 27 21" fill="none" xmlns="http://www.w3.org/2000/svg">
<path d="M12.3235 0.551404C11.9703 0.19834 11.4913 0 10.992 0C10.4926 0 10.0136 0.19834 9.66047 0.551404L1.18562 9.02625C0.832558 9.37942 0.634216 9.85836 0.634216 10.3577C0.634216 10.8571 0.832558 11.3361 1.18562 11.6892L9.66047 20.1641C10.0157 20.5071 10.4914 20.697 10.9852 20.6927C11.479 20.6884 11.9513 20.4903 12.3005 20.1411C12.6497 19.792 12.8478 19.3196 12.852 18.8258C12.8563 18.332 12.6665 17.8563 12.3235 17.5011L7.22536 12.241H25.1167C25.6162 12.241 26.0952 12.0426 26.4484 11.6894C26.8016 11.3362 27 10.8572 27 10.3577C27 9.85826 26.8016 9.37924 26.4484 9.02605C26.0952 8.67286 25.6162 8.47444 25.1167 8.47444H7.22536L12.3235 3.21439C12.6765 2.86122 12.8749 2.38228 12.8749 1.8829C12.8749 1.38351 12.6765 0.904575 12.3235 0.551404Z" fill="black"/>
</svg>
