<svg width="21" height="21" viewBox="0 0 21 21" fill="none" xmlns="http://www.w3.org/2000/svg">
<path d="M12.4483 9.42077C14.4235 9.42077 16.3982 9.42077 18.3726 9.42077C19.4642 9.42077 20.1686 10.1281 20.1686 11.2227C20.1686 13.6106 20.1686 15.9985 20.1686 18.3864C20.1686 19.4659 19.458 20.1782 18.3816 20.1782C14.4182 20.1782 10.4548 20.1782 6.49146 20.1782C5.41391 20.1782 4.70564 19.4664 4.70508 18.3859C4.70508 15.9908 4.70508 13.5958 4.70508 11.2008C4.70508 10.1342 5.4184 9.42077 6.48136 9.42021C8.47073 9.41983 10.4597 9.42002 12.4483 9.42077ZM14.4457 10.1084H10.4363V19.4984H14.4446L14.4457 10.1084ZM9.73928 11.4461H8.03933C7.85861 12.1393 7.41188 12.576 6.73279 12.7562V15.5028C7.4304 15.6864 7.85974 16.131 8.04045 16.8063H9.73928V11.4461ZM16.8343 16.8102C17.0173 16.1194 17.4541 15.6827 18.1448 15.5V12.7551C17.4511 12.5732 17.0133 12.1287 16.8338 11.4506H15.1394V16.8102H16.8343ZM9.74209 10.0932H9.54229C8.51263 10.0932 7.48371 10.0932 6.45554 10.0932C5.80059 10.0932 5.37911 10.5159 5.37911 11.1721C5.37911 13.1402 5.37911 15.1082 5.37911 17.0763C5.37911 17.7443 5.79891 18.1602 6.47126 18.1608C7.49381 18.1608 8.51637 18.1608 9.53893 18.1608H9.73872V17.4872H9.52377C8.95637 17.4872 8.38897 17.4872 7.82213 17.4872C7.52525 17.4872 7.41861 17.3867 7.39392 17.0942C7.37938 16.8463 7.27407 16.6124 7.09808 16.4372C6.9221 16.2621 6.68777 16.1578 6.43983 16.1445C6.15585 16.1209 6.04978 16.0137 6.04697 15.7358C6.04697 14.6644 6.04697 13.5928 6.04697 12.521C6.04697 12.2404 6.15136 12.1281 6.43254 12.1073C6.96065 12.0635 7.34397 11.6846 7.38662 11.1626C7.41188 10.8657 7.51626 10.7652 7.80922 10.7646C8.37662 10.7646 8.94403 10.7646 9.51143 10.7646H9.73592L9.74209 10.0932ZM15.1299 10.7669C15.7854 10.7669 16.4207 10.7669 17.0571 10.7669C17.3501 10.7669 17.455 10.869 17.4803 11.1648C17.4967 11.4083 17.6003 11.6376 17.772 11.8109C17.9437 11.9842 18.1721 12.0898 18.4153 12.1084C18.7273 12.1365 18.8222 12.2359 18.8227 12.544C18.8227 13.6016 18.8227 14.6592 18.8227 15.7167C18.8227 16.0148 18.7217 16.1226 18.4299 16.1467C18.182 16.1601 17.9478 16.2642 17.7718 16.4393C17.5958 16.6144 17.4905 16.8481 17.4758 17.0959C17.4517 17.3878 17.3445 17.4889 17.0481 17.4889C16.4813 17.4889 15.9139 17.4889 15.3465 17.4889H15.1338V18.1625H18.3777C19.0787 18.1625 19.4906 17.7527 19.4912 17.0566C19.4912 15.1028 19.4912 13.1488 19.4912 11.1946C19.4912 10.5075 19.0781 10.0949 18.3934 10.0944C17.3708 10.0944 16.3485 10.0944 15.3263 10.0944H15.1259L15.1299 10.7669ZM9.73255 19.5063V18.8355H9.49122C8.47653 18.8355 7.46127 18.8355 6.44657 18.8355C6.11606 18.841 5.79074 18.7528 5.50819 18.5812C5.46813 18.5592 5.42691 18.5393 5.38472 18.5217C5.40886 19.0668 5.81182 19.4956 6.3332 19.5018C7.46183 19.5136 8.58877 19.5052 9.73479 19.5052L9.73255 19.5063ZM15.1349 19.5029C16.2978 19.5029 17.4444 19.5192 18.5904 19.4956C19.0955 19.485 19.4827 19.0258 19.4816 18.4987C19.0169 18.863 18.4838 18.8411 17.9506 18.8355C17.0902 18.8293 16.2293 18.8355 15.369 18.8355H15.1349V19.5029Z" fill="white"/>
<path d="M0.67116 15.504V16.4431C0.67116 16.6502 0.803049 16.7799 0.951774 16.8854C1.36428 17.184 1.83964 17.3345 2.33464 17.3985C2.75612 17.4546 3.18433 17.4641 3.61031 17.4827C3.86342 17.4939 4.01439 17.5977 4.02618 17.7993C4.03796 18.0008 3.87576 18.1434 3.62209 18.1574C2.63096 18.2135 1.68417 18.053 0.801362 17.5798C0.759342 17.5605 0.716247 17.5436 0.672284 17.5293C0.672284 17.8694 0.64366 18.1933 0.685191 18.5082C0.704273 18.6514 0.837848 18.808 0.961879 18.9012C1.36596 19.2099 1.84693 19.3615 2.3425 19.4125C2.86893 19.4687 3.40209 19.4653 3.93189 19.4687C4.18837 19.4687 4.3573 19.5725 4.36965 19.783C4.38199 19.9935 4.24786 20.1198 3.99531 20.1412C2.96994 20.231 1.96535 20.1529 1.0208 19.7129C0.794489 19.6032 0.583542 19.4643 0.393356 19.2997C0.266066 19.1947 0.164483 19.062 0.0963892 18.9116C0.0282953 18.7613 -0.00450382 18.5974 0.000496905 18.4325C0.00349012 14.441 0.00349012 10.4493 0.000496905 6.45747C0.000496905 5.98651 0.243507 5.6671 0.602131 5.41282C1.14147 5.03055 1.76106 4.8644 2.40479 4.77851C3.43184 4.64155 4.44485 4.69263 5.427 5.05132C5.63626 5.12987 5.83723 5.22897 6.02695 5.34715C6.50175 5.64016 6.76496 6.04321 6.73241 6.63317C6.70154 7.19451 6.72624 7.75584 6.72512 8.31381C6.72512 8.58999 6.59379 8.75053 6.37884 8.74323C6.16389 8.73593 6.05445 8.58325 6.05333 8.31437C6.05333 8.02921 6.05333 7.74405 6.05333 7.42522C5.1997 7.8872 4.31352 8.07973 3.37235 8.08029C2.43117 8.08085 1.54106 7.89449 0.682382 7.42746C0.682382 7.79064 0.654882 8.13138 0.696413 8.46369C0.712689 8.59616 0.861415 8.73818 0.985446 8.82687C1.47708 9.17939 2.05178 9.31973 2.6405 9.36856C3.08443 9.40561 3.53398 9.38652 3.98071 9.37922C4.2501 9.37529 4.40725 9.47185 4.42184 9.68516C4.43643 9.89846 4.30117 10.0253 4.03515 10.0528C3.00081 10.1606 1.99509 10.0742 1.04045 9.62565C0.9282 9.57289 0.815959 9.51675 0.680142 9.44995C0.680142 9.80528 0.652641 10.1404 0.693049 10.4677C0.709886 10.6018 0.852438 10.7483 0.973663 10.837C1.37438 11.139 1.84862 11.2777 2.33576 11.3422C2.75724 11.3983 3.18546 11.4085 3.61143 11.427C3.87408 11.4382 4.03179 11.5527 4.03066 11.7638C4.03066 11.9602 3.8752 12.0894 3.62995 12.1006C2.63096 12.1567 1.678 11.9928 0.789017 11.5162C0.752411 11.4992 0.714946 11.484 0.676771 11.4708C0.676771 11.8115 0.645904 12.1354 0.690802 12.4486C0.711567 12.5974 0.851877 12.7573 0.981521 12.8561C1.38055 13.1593 1.85647 13.2957 2.34474 13.3613C2.75892 13.4175 3.18041 13.4281 3.59908 13.445C3.86791 13.4562 4.02337 13.5573 4.03179 13.7666C4.04021 13.976 3.87576 14.1034 3.60132 14.1208C2.58101 14.177 1.61065 13.9957 0.682944 13.4753C0.682944 13.8435 0.649833 14.1859 0.698098 14.5166C0.718864 14.6603 0.884426 14.8107 1.0208 14.9045C1.5057 15.2373 2.06749 15.3642 2.64219 15.4231C2.96826 15.4568 3.29883 15.4551 3.62715 15.463C3.87465 15.4692 4.02842 15.5893 4.03123 15.7919C4.03403 15.9946 3.87801 16.1226 3.635 16.1366C2.63658 16.1927 1.68249 16.0316 0.793511 15.5539C0.762643 15.5416 0.731212 15.5298 0.67116 15.504ZM3.32296 7.40556C4.01551 7.39827 4.66991 7.32585 5.28276 7.06259C5.4945 6.97215 5.69233 6.85214 5.87037 6.70614C6.1145 6.50462 6.11562 6.28794 5.87037 6.08867C5.69621 5.9377 5.49796 5.81703 5.28388 5.73166C4.00036 5.25902 2.70785 5.2579 1.42601 5.73503C1.19433 5.8317 0.981547 5.96852 0.797437 6.13919C0.613354 6.29973 0.618408 6.48161 0.793511 6.65225C0.928013 6.7843 1.08188 6.89503 1.24979 6.98063C1.91372 7.30845 2.6276 7.39209 3.32408 7.40556H3.32296Z" fill="white"/>
<path d="M18.8262 7.06989C18.8262 7.52626 18.8262 7.93211 18.8262 8.33795C18.8262 8.59617 18.6893 8.75334 18.4805 8.7466C18.2717 8.73987 18.1561 8.58999 18.155 8.33851C18.155 7.79963 18.1584 7.26018 18.1505 6.7213C18.1494 6.63523 18.1143 6.55309 18.0529 6.49284C16.4163 5.2579 14.7747 4.02801 13.1191 2.78802C13.063 2.82563 13.0069 2.86211 12.9507 2.90029C11.3715 4.08396 9.79141 5.26707 8.21062 6.44962C8.16165 6.48088 8.12211 6.52487 8.09621 6.57688C8.07031 6.62889 8.05903 6.68696 8.06358 6.74488C8.07143 7.27029 8.06751 7.79514 8.06358 8.32055C8.06358 8.58774 7.94179 8.74155 7.73358 8.74548C7.52536 8.74941 7.39235 8.59167 7.39179 8.31213C7.39179 7.70252 7.39516 7.09347 7.39179 6.48442C7.38718 6.4044 7.40337 6.32454 7.43878 6.25264C7.47419 6.18073 7.5276 6.11921 7.59383 6.07408C9.34823 4.76168 11.1013 3.44778 12.8531 2.13238C13.0658 1.97296 13.1646 1.98082 13.4143 2.16942C15.358 3.62665 17.301 5.08407 19.2432 6.54168C19.3151 6.59781 19.3875 6.64665 19.4941 6.72355C19.4941 6.33061 19.4975 5.96799 19.4896 5.60874C19.4896 5.56495 19.438 5.51219 19.397 5.48131C17.3148 3.91818 15.2316 2.35616 13.1472 0.795275C13.1293 0.786473 13.1105 0.779877 13.0911 0.775629L11.1346 2.24184L7.38786 5.04852C7.32803 5.09671 7.26419 5.13972 7.19705 5.17707C7.13209 5.21415 7.05573 5.22596 6.98261 5.21021C6.90949 5.19446 6.84476 5.15228 6.80082 5.09174C6.74686 5.03472 6.7168 4.95919 6.7168 4.88068C6.7168 4.80217 6.74686 4.72664 6.80082 4.66962C6.84779 4.61779 6.90116 4.57214 6.95965 4.53377C8.90785 3.0713 10.8562 1.60959 12.8048 0.148614C13.068 -0.0489763 13.15 -0.050099 13.4182 0.148614C15.5909 1.77799 17.7638 3.40717 19.9369 5.03617C20.0126 5.08528 20.0741 5.15346 20.1152 5.23386C20.1563 5.31426 20.1755 5.40405 20.1709 5.49422C20.162 6.09654 20.1659 6.69885 20.1709 7.30116C20.1709 7.46451 20.1451 7.60877 19.9857 7.6941C19.8263 7.77942 19.6922 7.71543 19.562 7.61551C19.3319 7.44318 19.0967 7.27141 18.8262 7.06989Z" fill="white"/>
<path d="M13.1173 4.71453C13.4494 4.71597 13.7737 4.81582 14.0491 5.00147C14.3245 5.18711 14.5387 5.45023 14.6647 5.75758C14.7907 6.06493 14.8228 6.40273 14.757 6.72832C14.6911 7.05391 14.5303 7.35269 14.2948 7.58691C14.0593 7.82113 13.7597 7.9803 13.4338 8.0443C13.1079 8.10831 12.7703 8.07428 12.4637 7.94652C12.1572 7.81876 11.8953 7.603 11.7113 7.32648C11.5272 7.04997 11.4292 6.72511 11.4297 6.39292C11.4312 5.94659 11.6098 5.5191 11.9262 5.20439C12.2426 4.88968 12.6711 4.71348 13.1173 4.71453ZM13.105 7.40277C13.3047 7.40377 13.5002 7.34537 13.6666 7.23498C13.8331 7.1246 13.963 6.96722 14.0398 6.78284C14.1167 6.59845 14.137 6.39538 14.0982 6.19942C14.0594 6.00347 13.9632 5.82348 13.8219 5.68231C13.6806 5.54113 13.5006 5.44515 13.3046 5.40656C13.1086 5.36797 12.9056 5.38851 12.7214 5.46558C12.5371 5.54264 12.3799 5.67274 12.2697 5.83936C12.1596 6.00598 12.1014 6.20159 12.1026 6.40135C12.1049 6.66641 12.2113 6.91993 12.3988 7.10726C12.5863 7.29459 12.8399 7.40072 13.105 7.40277Z" fill="white"/>
<path d="M12.0925 12.795C12.129 12.5177 12.0044 12.1713 12.423 12.1157C12.6509 12.0849 12.7205 12.2196 12.7963 12.7832C12.9938 12.7832 13.1953 12.7832 13.3962 12.7832C13.6297 12.7865 13.7762 12.9134 13.7812 13.1099C13.7863 13.3063 13.6347 13.4517 13.3923 13.454C13.0353 13.4568 12.6784 13.454 12.3209 13.454C11.9926 13.4568 11.7675 13.6645 11.7675 13.9592C11.7675 14.2539 11.992 14.4548 12.3215 14.4644C12.5027 14.47 12.6885 14.4644 12.8636 14.4992C13.1168 14.5537 13.3446 14.6911 13.511 14.8896C13.6774 15.0881 13.773 15.3364 13.7826 15.5952C13.7922 15.8541 13.7153 16.1088 13.564 16.3191C13.4127 16.5293 13.1957 16.6832 12.9472 16.7563C12.7968 16.7984 12.757 16.863 12.7732 17.0005C12.7811 17.0632 12.78 17.1267 12.7699 17.1891C12.739 17.3704 12.629 17.4765 12.4438 17.4866C12.3587 17.4897 12.2757 17.4592 12.2128 17.4018C12.1498 17.3444 12.1119 17.2646 12.1071 17.1796C12.097 17.0673 12.1071 16.955 12.1071 16.8169C11.8944 16.8169 11.694 16.8169 11.4936 16.8169C11.2467 16.8136 11.0969 16.6845 11.1008 16.4801C11.1047 16.2758 11.2501 16.1478 11.4993 16.1433C11.8495 16.1433 12.1991 16.1433 12.5493 16.1433C12.89 16.1433 13.1206 15.9289 13.1145 15.6297C13.1083 15.3305 12.8832 15.1419 12.5499 15.1352C12.3892 15.1405 12.2284 15.1334 12.0689 15.1138C11.8041 15.069 11.563 14.934 11.3865 14.7316C11.2099 14.5292 11.1088 14.272 11.1002 14.0035C11.0828 13.4467 11.437 12.9763 11.9853 12.8247L12.0925 12.795Z" fill="white"/>
</svg>
