<svg width="18" height="27" viewBox="0 0 18 27" fill="none" xmlns="http://www.w3.org/2000/svg">
<path d="M14.3886 16.6889C15.1097 16.6889 15.7837 16.6889 16.4585 16.6889C17.0698 16.6889 17.3802 16.9977 17.3833 17.6051C17.3833 18.2801 17.3833 18.9547 17.3833 19.6287C17.3833 20.3106 17.0894 20.6021 16.3989 20.6115H16.1183V20.9673C16.1183 22.2291 16.1183 23.4907 16.1183 24.752C16.1183 25.7458 15.6317 26.2348 14.6473 26.2356H2.73446C1.76341 26.2356 1.26887 25.7442 1.2673 24.7779C1.2673 23.516 1.2673 22.2545 1.2673 20.9932V20.6107C1.11056 20.6107 0.98986 20.6107 0.86603 20.6107C0.328386 20.5919 0.00391869 20.2745 0.00391869 19.7439C-0.00130623 19.0124 -0.00130623 18.2791 0.00391869 17.544C0.00391869 17.0141 0.33622 16.692 0.872296 16.6905C2.15371 16.6905 3.43512 16.6905 4.71261 16.6905H5.06608C5.07313 16.5839 5.08332 16.4906 5.08332 16.3981C5.08332 14.804 5.08332 13.2104 5.08332 11.6173C5.08332 11.1925 5.01748 11.1306 4.58564 11.1298C4.08719 11.1298 3.58795 11.1353 3.08949 11.1298C1.87078 11.111 0.960858 10.2082 0.949886 8.9879C0.93813 7.61949 0.945967 6.2503 0.949886 4.88111C0.949886 4.70712 0.942051 4.57937 0.737496 4.49865C0.483565 4.39833 0.355031 4.16869 0.354247 3.89047C0.354247 3.0793 0.338578 2.26735 0.359739 1.45618C0.377765 0.764138 0.941269 0.148906 1.62077 0.0274267C2.36297 -0.104241 3.06128 0.245304 3.35518 0.922453C3.43355 1.10663 3.5229 1.21009 3.72981 1.2579C4.11071 1.34489 4.34112 1.65446 4.34661 2.04868C4.35445 2.65451 4.34661 3.26112 4.34661 3.86695C4.34661 4.14439 4.22905 4.36933 3.98217 4.49394C3.82542 4.57231 3.80974 4.67107 3.80974 4.81606C3.81445 5.82317 3.80974 6.83026 3.80974 7.83737C3.80974 8.21591 3.87323 8.28175 4.25256 8.28175C6.84464 8.28175 9.43645 8.28175 12.028 8.28175C12.5273 8.28175 13.0038 8.34758 13.4239 8.63834C14.0571 9.07567 14.3784 9.6815 14.3792 10.4519C14.3792 12.4269 14.3792 14.4022 14.3792 16.3778L14.3886 16.6889ZM15.3291 20.6295H2.05574C2.05025 20.7385 2.04085 20.8341 2.04085 20.9289C2.04085 22.2095 2.04085 23.4897 2.04085 24.7692C2.04085 25.3178 2.18506 25.4652 2.73681 25.4652H14.6496C15.2029 25.4652 15.3487 25.3202 15.3495 24.7716C15.3495 23.491 15.3495 22.2109 15.3495 20.9313C15.344 20.8357 15.337 20.7408 15.3315 20.6334L15.3291 20.6295ZM5.86079 16.674H11.365V11.7365C11.365 11.6385 11.365 11.5405 11.3705 11.4433C11.3885 11.2145 11.5162 11.0734 11.7435 11.0687C11.9708 11.064 12.1009 11.2074 12.1299 11.4308C12.1385 11.5283 12.1409 11.6262 12.137 11.7239C12.137 13.2595 12.137 14.7946 12.137 16.3292V16.6646H13.6198C13.6198 14.5234 13.63 12.4034 13.6127 10.2826C13.608 9.71286 13.1676 9.16423 12.6049 9.09997C11.963 9.02629 11.3062 9.08273 10.651 9.08273C10.5797 9.74969 10.2826 10.2842 9.70345 10.6212C9.50438 10.7364 9.48636 10.8414 9.53573 11.0358C9.79123 12.0484 10.0452 13.0625 10.2756 14.0806C10.3078 14.2569 10.2746 14.4388 10.1823 14.5924C9.82885 15.141 9.44639 15.6755 9.06784 16.2093C8.8241 16.5533 8.56468 16.5517 8.32172 16.2093C7.94318 15.6747 7.56072 15.1426 7.20647 14.5916C7.11545 14.4379 7.08289 14.2564 7.11477 14.0806C7.32794 13.1276 7.56228 12.1801 7.80837 11.2349C7.88675 10.9292 7.91496 10.7192 7.5662 10.5334C7.15787 10.3163 6.92745 9.91192 6.80911 9.45892C6.77541 9.32961 6.75189 9.19794 6.71898 9.04511C5.87959 9.04511 5.04961 9.04511 4.22042 9.04511C3.47195 9.04119 3.05501 8.6258 3.05266 7.88439C3.05266 6.8961 3.05266 5.90859 3.05266 4.92108V4.60759H1.754C1.73926 4.63727 1.72896 4.66896 1.72343 4.70163C1.72343 6.14841 1.70541 7.59598 1.72893 9.04276C1.74068 9.80847 2.33084 10.3438 3.10282 10.3555C3.60206 10.3626 4.10052 10.3555 4.59976 10.3555C5.45716 10.3555 5.85843 10.7544 5.85922 11.6095C5.85922 13.1738 5.85922 14.7384 5.85922 16.3033L5.86079 16.674ZM0.785303 19.8199H16.5941V17.4687H0.783734L0.785303 19.8199ZM3.56365 1.95699C3.46411 2.02909 3.40691 2.07612 3.34656 2.11374C3.29342 2.1535 3.23058 2.17828 3.1646 2.18547C3.09862 2.19267 3.03192 2.18201 2.97146 2.15462C2.91101 2.12724 2.85901 2.08413 2.82091 2.02978C2.7828 1.97544 2.75998 1.91187 2.75484 1.8457C2.7423 1.75949 2.74935 1.67014 2.74308 1.58236C2.70389 1.0745 2.36297 0.746897 1.89586 0.76649C1.44208 0.786084 1.12936 1.12858 1.12466 1.6286C1.11917 2.15527 1.12466 2.68194 1.12466 3.2094V3.81209H3.56522L3.56365 1.95699ZM8.72457 10.9488C8.67676 10.9802 8.66422 10.9841 8.66265 10.9903C8.40506 12.0207 8.14852 13.0518 7.89302 14.0838C7.87477 14.1386 7.877 14.1982 7.89929 14.2515C8.15244 14.6284 8.41421 14.9992 8.69557 15.4044C8.97458 15.0031 9.22772 14.6465 9.47146 14.2836C9.50377 14.2251 9.51327 14.1567 9.49812 14.0916C9.2434 13.0508 8.98555 12.0123 8.723 10.9488H8.72457ZM9.85471 9.06784H7.53406C7.55686 9.35995 7.68899 9.63272 7.90408 9.83168C8.11917 10.0306 8.40139 10.1411 8.69439 10.1411C8.98739 10.1411 9.26961 10.0306 9.4847 9.83168C9.69979 9.63272 9.83192 9.35995 9.85471 9.06784Z" fill="white"/>
<path d="M10.9723 5.06999C10.9735 5.52079 10.841 5.96183 10.5916 6.33733C10.3422 6.71283 9.98697 7.00592 9.57095 7.17954C9.15493 7.35316 8.69676 7.39951 8.25439 7.31272C7.81203 7.22594 7.40535 7.00992 7.08576 6.69198C6.76618 6.37404 6.54806 5.96847 6.45899 5.52655C6.36993 5.08464 6.4139 4.62625 6.58537 4.20934C6.75685 3.79242 7.04812 3.43572 7.42232 3.18435C7.79653 2.93299 8.23688 2.79824 8.68768 2.79715C9.29068 2.8 9.86834 3.04001 10.2958 3.4653C10.7233 3.89059 10.9663 4.46701 10.9723 5.06999ZM8.70492 3.56835C8.40665 3.5662 8.11444 3.65246 7.86516 3.81625C7.61588 3.98004 7.4207 4.21401 7.30429 4.48863C7.18787 4.76324 7.15542 5.06619 7.21103 5.35924C7.26665 5.65228 7.40784 5.92228 7.61678 6.13515C7.82571 6.34802 8.09302 6.49422 8.38498 6.55529C8.67693 6.61636 8.98044 6.58957 9.25718 6.47829C9.53392 6.36701 9.77149 6.17625 9.9399 5.93007C10.1083 5.68388 10.2 5.39332 10.2034 5.09507C10.2043 4.69475 10.0476 4.31017 9.76718 4.02448C9.48677 3.73879 9.10518 3.57494 8.70492 3.56835Z" fill="white"/>
</svg>
