<svg width="107" height="110" viewBox="0 0 107 110" fill="none" xmlns="http://www.w3.org/2000/svg">
<path d="M53.5 110C53.177 110 52.8545 109.973 52.536 109.919C52.1619 109.859 48.7404 109.24 43.7851 107.135C40.8502 105.884 38.0204 104.402 35.3227 102.702C31.8818 100.534 28.6563 98.0437 25.6896 95.2664C18.1466 88.2157 12.1538 79.2964 7.8786 68.7562C5.37952 62.5947 3.44918 55.8036 2.14181 48.5801C0.722973 40.7216 6.01775e-09 32.1453 6.01775e-09 23.0899C-5.08977e-05 21.9837 0.322843 20.9013 0.929413 19.9744C1.53598 19.0474 2.40009 18.3159 3.41665 17.8687L42.9392 0.487039C43.6281 0.184056 44.3702 0.0190905 45.1231 0.00156106C45.876 -0.0159684 46.6251 0.114282 47.3274 0.384875C48.0298 0.655468 48.6717 1.0611 49.2166 1.57862C49.7615 2.09614 50.1986 2.71541 50.503 3.40107C50.8074 4.08673 50.9731 4.82536 50.9907 5.57477C51.0084 6.32418 50.8775 7.06971 50.6056 7.76879C50.3338 8.46786 49.9262 9.1068 49.4063 9.64911C48.8863 10.1914 48.2641 10.6265 47.5752 10.9295L11.5139 26.7892C11.8501 40.9765 14.1371 53.4823 18.3256 64.0081C21.8922 72.9718 26.8452 80.5305 33.0465 86.4749C38.5519 91.7518 44.0718 94.7819 47.7295 96.3938C50.1996 97.4828 52.1878 98.0926 53.3554 98.4014C54.5302 98.0321 56.5383 97.3185 59.0386 96.1077C62.7336 94.3184 68.3059 91.0382 73.8631 85.573C80.106 79.4343 85.0873 71.8156 88.6696 62.9281C92.8478 52.5631 95.1354 40.4212 95.483 26.788L82.5641 21.1062L54.1025 71.2604C53.6675 72.0266 53.0604 72.6824 52.3286 73.1765C51.5968 73.6706 50.7602 73.9896 49.884 74.1086C49.0079 74.2275 48.116 74.1432 47.278 73.8623C46.44 73.5814 45.6786 73.1114 45.0533 72.4891L30.1022 57.6074C29.5696 57.0773 29.1472 56.448 28.859 55.7555C28.5708 55.063 28.4224 54.3207 28.4224 53.5711C28.4224 52.0572 29.0267 50.6053 30.1022 49.5348C31.1777 48.4643 32.6364 47.8629 34.1575 47.8629C35.6785 47.8629 37.1372 48.4643 38.2127 49.5348L47.8277 59.1047L75.1332 10.9852C75.8334 9.75132 76.9698 8.8208 78.3212 8.37468C79.6727 7.92857 81.1425 7.99876 82.4448 8.57162L103.583 17.8663C104.6 18.3136 105.464 19.0454 106.071 19.9728C106.678 20.9003 107 21.9832 107 23.0899C107 39.9157 104.349 54.9185 99.1118 67.6804C94.8474 78.0779 88.8775 87.0128 81.3682 94.2356C68.4192 106.693 55.3111 109.737 54.7592 109.861C54.3459 109.954 53.9236 110 53.5 110Z" fill="url(#paint0_linear_315_594)"/>
<defs>
<linearGradient id="paint0_linear_315_594" x1="11" y1="11.5" x2="116.49" y2="129.509" gradientUnits="userSpaceOnUse">
<stop stop-color="#FFBE2E"/>
<stop offset="1" stop-color="#FF922E"/>
</linearGradient>
</defs>
</svg>
