<svg width="25" height="30" viewBox="0 0 25 30" fill="none" xmlns="http://www.w3.org/2000/svg">
<path d="M1.63371 29.259C1.16948 29.0437 1.00302 28.6757 1.03662 28.1748C1.0641 27.7571 1.03662 27.3349 1.04426 26.918C1.05495 26.3644 1.36571 26.0598 1.92081 26.0491C2.16667 26.0438 2.4133 26.0491 2.70573 26.0491C2.70573 25.536 2.70955 25.045 2.70573 24.5533C2.70573 24.2227 2.81797 23.9425 3.1043 23.7814C3.28832 23.6775 3.51126 23.6432 3.74644 23.5676V16.6079L3.51049 16.585C3.04473 16.5369 2.72175 16.2032 2.71107 15.7344C2.69885 15.2312 2.71107 14.7265 2.71107 14.1729C2.5072 14.1729 2.32166 14.1729 2.13688 14.1729C1.61843 14.1683 1.26873 13.9439 1.10915 13.5102C0.949569 13.0765 1.07557 12.6634 1.4665 12.3397C3.57134 10.5957 5.6772 8.85255 7.78407 7.11014C7.90471 7.01012 8.04444 6.94292 7.95205 6.72072C7.86729 6.51686 7.7833 6.42752 7.5466 6.43439C6.87086 6.45348 6.19359 6.44127 5.51709 6.44127H5.20634C5.20634 6.76502 5.20176 7.05821 5.20634 7.35141C5.21169 7.67363 5.1025 7.93171 4.80395 8.0806C4.50541 8.22949 4.23511 8.15008 3.98009 7.95614C2.77598 7.03989 1.56651 6.12364 0.363165 5.20738C-0.118632 4.84012 -0.120911 4.33007 0.355541 3.96662C1.56703 3.04324 2.78055 2.12165 3.99612 1.20183C4.24427 1.01247 4.50769 0.949094 4.79555 1.08501C5.0834 1.22092 5.20558 1.46678 5.20481 1.77983C5.20405 2.09288 5.20481 2.39066 5.20481 2.7335H5.67133C6.4051 2.7335 7.13887 2.72815 7.87187 2.7335C7.94091 2.73972 8.01018 2.72414 8.0699 2.68893C8.12962 2.65373 8.17679 2.60069 8.20478 2.53727C9.16456 0.887249 10.6054 -0.00152512 12.5119 1.96459e-06C14.4185 0.00152905 15.8326 0.899458 16.8 2.52963C16.8496 2.61362 16.9527 2.71899 17.0375 2.72051C17.9415 2.73426 18.8463 2.72892 19.7931 2.72892C19.7931 2.4235 19.7977 2.12877 19.7931 1.8371C19.7862 1.50572 19.8847 1.23237 20.2001 1.08271C20.5154 0.933058 20.7827 1.0285 21.0461 1.22932C22.2342 2.13717 23.4291 3.03663 24.6195 3.94143C25.1265 4.3232 25.1272 4.83096 24.6195 5.2196C23.423 6.13586 22.2219 7.03837 21.0247 7.94927C20.7697 8.14321 20.5024 8.22644 20.2016 8.07831C19.9008 7.93018 19.79 7.67439 19.7954 7.35141C19.8007 7.05745 19.7954 6.76425 19.7954 6.43516H18.2309C17.9548 6.44764 17.6783 6.44561 17.4024 6.42905C17.1436 6.40157 17.1245 6.58176 17.0459 6.73905C16.9603 6.90932 17.065 6.9788 17.1696 7.06585C19.0784 8.64384 20.9873 10.2218 22.8961 11.7998C23.116 11.9823 23.3382 12.1617 23.5551 12.3473C23.9269 12.6657 24.046 13.0803 23.8941 13.4995C23.7422 13.9187 23.3917 14.1592 22.9015 14.166C22.7129 14.166 22.5235 14.166 22.296 14.166V15.3809C22.296 16.2643 22.1318 16.462 21.2354 16.6193C21.2354 16.9606 21.2431 17.3065 21.2354 17.6585C21.2316 17.7875 21.2263 17.9639 21.1469 18.0326C21.0362 18.1334 20.8323 18.235 20.7116 18.1968C20.6347 18.1627 20.5667 18.1114 20.5128 18.0468C20.4589 17.9821 20.4206 17.906 20.4009 17.8242C20.3543 17.4875 20.3917 17.137 20.3749 16.798C20.3711 16.7216 20.281 16.5934 20.2291 16.5926C19.5648 16.5781 18.8997 16.5827 18.2194 16.5827V23.5981H20.365C20.3703 23.4966 20.381 23.3973 20.381 23.2973C20.381 22.2207 20.381 21.1443 20.381 20.0683C20.381 19.9919 20.381 19.9155 20.381 19.8392C20.3948 19.5658 20.5536 19.3864 20.7872 19.3765C21.0209 19.3666 21.2255 19.5536 21.2316 19.8346C21.2438 20.3584 21.2362 20.8822 21.2362 21.406C21.2362 22.1291 21.2362 22.8514 21.2362 23.5874C21.3202 23.6012 21.3828 23.6142 21.4454 23.621C21.9997 23.6859 22.2899 24.0081 22.296 24.5747C22.3013 25.0328 22.3006 25.491 22.3036 25.9491C22.3122 25.9822 22.3245 26.0142 22.3403 26.0445C22.5762 26.0445 22.8289 26.0399 23.0824 26.0445C23.6383 26.0552 23.9468 26.3576 23.9582 26.9127C23.9666 27.3319 23.9384 27.7526 23.9659 28.1702C23.9995 28.6711 23.8322 29.0384 23.3695 29.2545H8.09406C7.89706 29.1155 7.73749 28.949 7.83369 28.6864C7.9299 28.4237 8.14904 28.381 8.39414 28.397C8.46057 28.397 8.52775 28.397 8.59418 28.397H23.0687V26.9165H1.91851V28.397H2.23996C3.51661 28.397 4.79325 28.397 6.0699 28.397C6.31347 28.397 6.53414 28.423 6.63187 28.6856C6.72961 28.9483 6.56773 29.1124 6.37761 29.256L1.63371 29.259ZM16.5526 7.67745C15.5157 9.06786 14.1711 9.81079 12.4753 9.80468C10.7795 9.79857 9.44706 9.04114 8.44071 7.68661C8.37886 7.73319 8.34068 7.76296 8.30403 7.78969C6.22719 9.50919 4.15163 11.2295 2.07734 12.9505C2.00098 13.0131 1.9712 13.1307 1.92004 13.2223C2.02236 13.2536 2.12391 13.3109 2.22546 13.3109C9.06682 13.3155 15.9084 13.3155 22.7503 13.3109C22.8587 13.3109 22.9664 13.2445 23.0748 13.2086C23.0114 13.1124 22.9679 12.9925 22.8832 12.9215C21.2721 11.5807 19.6585 10.2435 18.0423 8.90981C17.5529 8.5036 17.0627 8.09892 16.5526 7.67745ZM8.44147 4.89586C8.44407 5.96953 8.87086 6.99867 9.62884 7.75909C10.3868 8.51951 11.4146 8.94958 12.4883 8.95562C13.5619 8.95282 14.5909 8.52598 15.3513 7.76803C16.1116 7.01009 16.5418 5.98243 16.548 4.90883C16.5462 3.83527 16.1196 2.80607 15.3613 2.04608C14.603 1.2861 13.5748 0.85712 12.5012 0.852885C11.4276 0.853478 10.3979 1.27909 9.63714 2.03669C8.8764 2.79428 8.44652 3.82224 8.44147 4.89586ZM21.4164 24.5014H3.58228V26.0231H21.4164V24.5014ZM21.4042 15.7206V14.1935H3.58608V15.7206H21.4042ZM10.5305 23.6065V16.6056H7.68557V23.6065H10.5305ZM17.3078 23.6065V16.6048H14.4605V23.6065H17.3078ZM24.0392 4.5828L20.6414 2.00889C20.6414 2.35631 20.6567 2.63118 20.6414 2.90376C20.6124 3.32448 20.336 3.57568 19.913 3.59096C19.8084 3.59096 19.7038 3.59096 19.5992 3.59096H17.3016C17.3452 4.25982 17.3879 4.90808 17.4314 5.58305C18.195 5.58305 18.9929 5.58305 19.7916 5.58305C20.3925 5.58305 20.6429 5.8312 20.6498 6.42753C20.6498 6.64819 20.6498 6.86962 20.6498 7.15519L24.0392 4.5828ZM4.34583 7.15442C4.34583 6.83984 4.33972 6.60314 4.34583 6.36644C4.36033 5.84112 4.6207 5.5861 5.14984 5.58305C5.87292 5.58305 6.60057 5.58305 7.31983 5.58305C7.41909 5.58305 7.51758 5.57465 7.55957 5.57236C7.60615 4.89128 7.64967 4.25219 7.69396 3.59172H5.25062C4.5848 3.59172 4.34506 3.34891 4.34277 2.67547C4.34277 2.47465 4.34277 2.27461 4.34277 2.01271L0.952619 4.58433L4.34583 7.15442ZM13.5641 23.608V16.6117H11.4262V23.608H13.5641ZM4.64437 16.6041V23.5974H6.78229V16.6041H4.64437Z" fill="black"/>
<path d="M11.2211 5.75559C11.3627 5.83879 11.4998 5.92927 11.6319 6.02666C11.9725 6.30917 12.3527 6.45348 12.7948 6.3588C13.0491 6.30382 13.2682 6.17249 13.298 5.88387C13.3278 5.59525 13.1056 5.48378 12.8964 5.39063C12.5497 5.23792 12.1947 5.09819 11.8396 4.96152C11.3433 4.77139 11.0593 4.41863 11.0448 3.8872C11.0303 3.33516 11.3067 2.93888 11.8022 2.71746C11.9916 2.63194 12.0802 2.54795 12.0756 2.32729C12.0687 2.02645 12.242 1.86228 12.5001 1.86534C12.7582 1.86839 12.9201 2.0295 12.9178 2.33721C12.9178 2.5365 12.9857 2.61285 13.1682 2.67469C13.3917 2.75373 13.6047 2.85962 13.8027 2.99004C14.0608 3.15725 14.1081 3.4161 13.9554 3.62608C13.8119 3.8246 13.5859 3.8246 13.3194 3.70243C13.0371 3.57892 12.7421 3.48649 12.4398 3.42678C12.3275 3.40311 12.1756 3.47108 12.0687 3.5398C11.8129 3.70472 11.8396 4.02235 12.1214 4.14375C12.5031 4.31097 12.9025 4.44917 13.2812 4.62403C13.7851 4.85996 14.141 5.2257 14.157 5.82127C14.173 6.41683 13.7974 6.92153 13.1644 7.13609C12.9804 7.19794 12.9124 7.27429 12.9132 7.47205C12.9132 7.77289 12.7406 7.93934 12.4879 7.93705C12.2351 7.93476 12.0679 7.76677 12.0695 7.46364C12.0695 7.25978 11.9977 7.18572 11.8121 7.09715C11.4986 6.94439 11.2064 6.75108 10.9432 6.5222C10.8539 6.44584 10.8264 6.21296 10.8669 6.08545C10.9073 5.95794 11.0845 5.87853 11.2211 5.75559Z" fill="black"/>
</svg>
