<svg width="22" height="22" viewBox="0 0 22 22" fill="none" xmlns="http://www.w3.org/2000/svg">
<path d="M2.12562 21.9951V20.26C2.12562 19.0351 2.12562 17.8103 2.12562 16.586C2.12458 16.4541 2.10362 16.3232 2.06345 16.1976C1.90715 15.7063 1.7615 15.2098 1.57204 14.7309C1.1351 13.6255 1.68276 12.4846 2.83669 12.1299C2.83669 11.7255 2.84379 11.3135 2.82898 10.902C2.82898 10.8364 2.73663 10.7602 2.66972 10.7123C2.03503 10.2577 1.46724 9.73864 1.02083 9.09074C-1.37406 5.61238 0.665591 0.800386 4.8414 0.119376C5.83666 -0.0431916 6.8479 -0.0236838 7.84552 0.0821329C8.85617 0.189132 9.68092 1.0203 9.87808 2.01107C9.98035 2.51341 9.92439 3.03504 9.71789 3.50436C9.51139 3.97367 9.16447 4.36767 8.72474 4.63225C8.64363 4.68072 8.56073 4.72683 8.52521 4.74693C8.73658 5.42794 8.93966 6.08531 9.14333 6.74445C9.16305 6.82319 9.17592 6.9035 9.18181 6.98446C9.26529 7.65955 9.26706 7.66369 8.67145 7.95868C8.54711 8.01779 8.50864 8.09346 8.50627 8.22943C8.50035 8.619 8.52936 9.02039 8.44707 9.39636C8.23096 10.38 7.60811 11.0102 6.63298 11.2881C6.55601 11.3093 6.47846 11.3265 6.38432 11.3472C6.38432 11.615 6.38077 11.8792 6.38787 12.1441C6.39108 12.168 6.39939 12.1909 6.41226 12.2113C6.42513 12.2317 6.44227 12.2491 6.46247 12.2623C7.39971 12.8245 8.06696 13.616 8.4891 14.6677C8.765 12.458 9.98523 11.1905 12.1498 10.798C11.2813 9.92131 11.1054 8.92107 11.6762 7.78724C11.6306 7.76478 11.5814 7.73877 11.5305 7.71748C10.7608 7.38939 10.4417 6.57242 10.7715 5.80746C10.8165 5.70283 10.7999 5.5515 10.7638 5.43681C10.511 4.63639 10.6294 3.92345 11.2321 3.31397C11.2694 3.26816 11.3148 3.2295 11.3659 3.19988C11.6691 3.0651 11.7679 2.81031 11.8633 2.50882C12.328 1.03685 13.7087 0.0448891 15.2587 0.033066C17.4724 0.0165137 19.2546 1.37854 19.743 3.47063C19.8004 3.73707 19.8361 4.00772 19.8496 4.27992C19.8579 4.41766 19.8981 4.48328 20.0272 4.53766C20.6145 4.78085 21.1152 5.19465 21.4641 5.7254C21.813 6.25614 21.9941 6.87933 21.984 7.51413C21.9709 9.28759 20.4446 10.7365 18.6684 10.6514C18.5234 10.6443 18.4085 10.6585 18.3446 10.8216C19.164 10.9109 19.8958 11.2006 20.5222 11.7261C21.4499 12.5035 21.955 13.5055 21.9763 14.7132C22.0035 16.2177 21.9952 17.7234 21.9804 19.2284C21.9656 20.7595 20.6891 21.9891 19.1255 21.9903C14.9155 21.9943 10.7052 21.9943 6.49445 21.9903H2.12857L2.12562 21.9951ZM18.4363 18.4529V18.2164C18.4363 17.5821 18.4653 16.946 18.4263 16.3141C18.3972 15.8453 18.6524 15.5107 18.8271 15.1075L19.4878 15.4391C19.0734 15.9209 19.1267 16.4725 19.1586 17.0205H21.2711C21.2711 16.252 21.28 15.4994 21.2711 14.7475C21.2577 14.0565 21.0262 13.3873 20.6096 12.8353C20.193 12.2833 19.6125 11.8767 18.9508 11.6735C18.8833 11.6528 18.8135 11.6398 18.7264 11.6185C18.6874 11.9436 18.6489 12.2422 18.6163 12.5407C18.59 12.7963 18.5106 13.0436 18.3832 13.2669C18.2559 13.4901 18.0833 13.6844 17.8765 13.8373C17.6697 13.9902 17.4332 14.0984 17.1822 14.155C16.9312 14.2115 16.6711 14.2152 16.4186 14.1658C15.9319 14.073 15.5577 13.8034 15.2487 13.4138C15.212 13.454 15.1895 13.4795 15.1646 13.5061C14.627 14.1197 13.9609 14.3585 13.1753 14.1126C12.3896 13.8667 11.9604 13.2927 11.8727 12.4704C11.8425 12.1937 11.8046 11.9182 11.7703 11.6428C10.6519 11.6764 9.09181 13.441 9.29311 14.4289C9.31422 14.4234 9.33498 14.4167 9.35528 14.4088C10.6969 13.8005 12.0533 14.6659 12.0569 16.1338C12.0569 16.7385 12.0569 17.3438 12.0569 17.9486V18.4523C12.2878 18.4523 12.4944 18.4446 12.6998 18.4523C12.7606 18.4589 12.822 18.4479 12.8768 18.4208C12.9315 18.3937 12.9774 18.3515 13.0089 18.2992C13.3132 17.8883 13.7365 17.708 14.2445 17.7482C14.6495 17.7789 14.9591 17.9965 15.2345 18.2802C15.3091 18.3571 15.4245 18.4398 15.5222 18.441C16.4796 18.4576 17.4393 18.4529 18.4363 18.4529ZM3.54183 6.05693C3.34527 6.05693 3.17653 6.05693 3.00897 6.05693C2.59808 6.05989 2.28963 6.26857 2.1718 6.62089C2.05398 6.97322 2.17179 7.32141 2.49979 7.57383C2.79583 7.79729 3.08594 8.02252 3.38789 8.23474C3.44238 8.27001 3.48616 8.31952 3.51445 8.37788C3.54274 8.43625 3.55446 8.50124 3.54835 8.56579C3.54302 9.66475 3.54539 10.7643 3.54539 11.8638V12.0412C3.89707 12.1683 4.26178 12.2061 4.48972 12.4024C4.93081 12.7807 5.24223 12.5862 5.57911 12.3001C5.61582 12.2688 5.66614 12.2256 5.66733 12.1866C5.67502 11.917 5.67147 11.6475 5.67147 11.359H4.26711V10.6608C4.87042 10.6608 5.45952 10.6673 6.04922 10.6608C6.45959 10.6598 6.85635 10.5138 7.16929 10.2488C7.48223 9.98368 7.69116 9.61661 7.75908 9.21252C7.81346 8.90022 7.82403 8.58188 7.79047 8.26667C7.73422 7.78842 7.84967 7.45797 8.35411 7.33442C8.47252 7.30545 8.50449 7.23037 8.48614 7.09796C8.38371 6.38857 8.13445 5.73002 7.82185 5.09276C7.8007 5.06326 7.77316 5.0389 7.74128 5.0215C7.7094 5.0041 7.67399 4.99411 7.63771 4.99226C6.90651 4.98753 6.17472 4.97926 5.44412 4.99876C4.8858 5.01354 4.37131 4.93256 3.97048 4.50692C3.44947 4.92014 3.55663 5.49415 3.54183 6.05693ZM5.40208 2.49995C5.21914 2.54843 5.05514 2.58804 4.89351 2.63533C4.46308 2.76302 4.20672 3.13426 4.25882 3.54984C4.31092 3.96543 4.66674 4.28288 5.11848 4.28465C5.89408 4.28879 6.6691 4.29174 7.4447 4.28465C7.89272 4.28392 8.32391 4.11416 8.65187 3.80939C8.97983 3.50463 9.18034 3.08737 9.21319 2.64124C9.2724 1.69539 8.60454 0.832306 7.65014 0.770826C6.77685 0.71171 5.88047 0.686882 5.0208 0.818709C1.37725 1.37735 -0.446892 5.41198 1.49803 8.53032C1.84531 9.08686 2.29971 9.56909 2.83491 9.94909C2.83491 9.56484 2.84497 9.22138 2.82839 8.8791C2.81699 8.77617 2.76735 8.68125 2.68927 8.61308C2.44711 8.40914 2.17476 8.23947 1.93971 8.02843C1.49921 7.63236 1.32752 7.13106 1.45955 6.55055C1.58981 5.97949 1.95037 5.6047 2.50513 5.42262C2.60874 5.38833 2.71709 5.37001 2.83017 5.34282C2.87576 4.77649 3.09779 4.30416 3.53177 3.9335C3.57558 3.89567 3.58387 3.78749 3.57203 3.71833C3.47907 3.18156 3.63833 2.72814 4.01192 2.34389C4.33933 2.00693 4.7745 1.92358 5.23098 1.83136C5.28723 2.04949 5.3411 2.26172 5.40208 2.49995ZM19.8454 19.1616C18.4772 19.1616 17.1332 19.1404 15.7904 19.1723C15.3055 19.1841 14.9124 19.1055 14.6264 18.6935C14.5937 18.6532 14.5547 18.6185 14.511 18.5906C14.4391 18.5352 14.3566 18.4952 14.2686 18.4731C14.1806 18.4509 14.0889 18.4471 13.9994 18.4617C13.9098 18.4764 13.8242 18.5094 13.7479 18.5585C13.6717 18.6076 13.6063 18.6718 13.556 18.7472C13.4974 18.8321 13.4487 18.9233 13.4109 19.0192C13.3653 19.1327 13.2925 19.1693 13.1741 19.1646C12.9159 19.1546 12.6572 19.1569 12.3985 19.1646C12.1168 19.1646 11.8466 19.2763 11.6474 19.4752C11.4482 19.6741 11.3363 19.9439 11.3363 20.2251C11.3363 20.5064 11.4482 20.7762 11.6474 20.975C11.8466 21.1739 12.1168 21.2857 12.3985 21.2857C14.6655 21.291 16.9331 21.2945 19.2001 21.2857C20.1397 21.2809 20.9946 20.6354 21.1764 19.7144C21.3007 19.0813 21.2682 18.4174 21.3061 17.7636H19.1545V18.4594H19.8437L19.8454 19.1616ZM3.28783 17.6246C3.56373 18.4523 3.81654 19.2515 4.09718 20.0425C4.5578 21.343 6.13743 21.7107 7.12321 20.743C8.42575 19.4655 9.70816 18.1715 10.9941 16.8798C11.105 16.7734 11.1933 16.6459 11.2539 16.5047C11.3144 16.3636 11.3459 16.2117 11.3464 16.0582C11.347 15.9046 11.3166 15.7525 11.2571 15.611C11.1976 15.4694 11.1102 15.3412 11 15.234C10.8928 15.1266 10.7648 15.0421 10.6239 14.9854C10.483 14.9287 10.3321 14.9011 10.1802 14.9043C10.0284 14.9074 9.8787 14.9412 9.74028 15.0037C9.60186 15.0662 9.47754 15.156 9.37482 15.2677C9.12734 15.5308 8.87808 15.6508 8.51337 15.6271C8.10366 15.6005 7.80882 15.9227 7.8029 16.3365C7.79816 16.5499 7.79402 16.7645 7.8029 16.9779C7.80772 17.0428 7.7974 17.1079 7.77274 17.1681C7.74809 17.2283 7.70977 17.282 7.66081 17.3249C6.89113 18.0822 6.13387 18.846 5.37129 19.6074C5.32156 19.657 5.26887 19.7037 5.24164 19.7297L4.7224 19.2621C4.7816 19.203 4.82898 19.1439 4.88049 19.0954C5.27125 18.7035 5.66496 18.3145 6.05217 17.919C6.10249 17.8682 6.16052 17.776 6.14631 17.7198C6.07467 17.429 5.98053 17.144 5.88994 16.8431L3.28783 17.6246ZM11.4251 5.1099C11.6258 5.07089 11.8254 5.00763 12.0267 5.00113C12.1948 4.99581 12.2635 4.93669 12.3268 4.78772C12.6166 4.11025 13.1346 3.55531 13.7911 3.21901C14.4475 2.88271 15.2011 2.78623 15.9213 2.94628C16.987 3.18747 17.7324 3.8271 18.1835 4.81906C18.202 4.85779 18.2279 4.8925 18.2598 4.92121C18.2917 4.94992 18.3289 4.97205 18.3694 4.98635C18.5891 5.03719 18.8153 5.05965 19.0444 5.09394C19.1628 4.80191 19.1817 4.26278 19.0817 3.76562C18.7081 1.91176 17.1628 0.702845 15.2173 0.743635C14.5317 0.755908 13.873 1.01207 13.3598 1.46603C12.8465 1.91999 12.5123 2.54195 12.4174 3.21998C12.3914 3.41447 12.3274 3.50847 12.1392 3.57468C11.9887 3.62531 11.8502 3.70597 11.732 3.81177C11.6138 3.91757 11.5184 4.04628 11.4516 4.19007C11.3848 4.33386 11.348 4.48972 11.3434 4.64816C11.3389 4.8066 11.3667 4.96431 11.4251 5.11168V5.1099ZM14.9065 7.11983C14.788 7.64241 14.5637 7.8233 14.0385 7.82389C13.6027 7.82389 13.1664 7.81384 12.7312 7.83099C12.6125 7.83887 12.5015 7.89249 12.4216 7.98055C12.0148 8.50136 11.9313 9.08246 12.2049 9.68426C12.4784 10.2861 12.968 10.6301 13.6258 10.6478C14.7034 10.6731 15.7813 10.6731 16.8597 10.6478C17.5204 10.6319 18.01 10.2825 18.2806 9.68189C18.5512 9.08128 18.463 8.50372 18.0681 7.97405C18.0338 7.92256 17.9863 7.88112 17.9307 7.854C17.875 7.82689 17.8131 7.81507 17.7513 7.81976C17.2777 7.82981 16.804 7.82271 16.3333 7.82389C16.0965 7.82389 15.8916 7.74527 15.7567 7.55255C15.6673 7.42546 15.6187 7.26998 15.5488 7.11983H14.9065ZM5.707 16.1592C5.45419 15.3611 5.24283 14.5719 4.95094 13.8135C4.75023 13.2938 4.29612 12.9859 3.75498 12.8458C3.26889 12.7175 2.81123 12.7683 2.44889 13.1555C2.08654 13.5427 2.0605 13.9831 2.23042 14.4714C2.49744 15.2352 2.74669 16.0055 3.00423 16.7728C3.02436 16.8319 3.051 16.891 3.07587 16.9501L5.707 16.1592ZM15.5808 6.40512C15.7063 5.87308 15.923 5.70106 16.4689 5.70106H17.6803C17.614 4.75521 16.6566 3.48778 15.0699 3.58177C13.923 3.64975 12.7519 4.75403 12.8277 5.70106C13.2682 5.70106 13.7099 5.70106 14.1516 5.70106C14.4068 5.70106 14.6175 5.79505 14.7555 6.00668C14.833 6.12491 14.8739 6.26797 14.929 6.40571L15.5808 6.40512ZM18.9864 9.91717C20.0485 9.94141 21.0586 8.99201 21.2498 7.78547C21.4174 6.73912 20.7063 5.49829 19.7827 5.22577C19.6915 5.46755 19.6501 5.68864 19.762 5.95998C20.0355 6.62621 19.6891 7.38821 19.0219 7.69206C18.952 7.72399 18.881 7.75118 18.8099 7.78428C19.1906 8.57289 19.206 8.77151 18.9864 9.91894V9.91717ZM6.75021 17.199C6.98703 17.0453 7.13979 16.8573 7.09479 16.5487C7.07805 16.3948 7.08444 16.2391 7.11374 16.0871C7.19012 15.6194 7.47371 15.2937 7.86625 15.0614C7.59746 14.209 6.92783 13.3636 6.17769 12.9291C6.12204 12.8966 6.0273 12.87 5.98171 12.8948C5.79877 12.9977 5.62648 13.1224 5.48439 13.2188C6.03797 14.5276 6.29728 15.8943 6.75021 17.199ZM10.9764 21.278C10.9539 21.2354 10.942 21.2106 10.9284 21.1875C10.4441 20.351 10.5566 19.5707 11.2588 18.8903C11.2931 18.8566 11.3387 18.8099 11.3393 18.7685C11.3452 18.3766 11.3428 17.9841 11.3428 17.5395C10.6282 18.2548 9.95623 18.9264 9.28661 19.6003C9.25022 19.6347 9.22698 19.6807 9.22088 19.7303C9.21614 20.2435 9.21793 20.7572 9.21793 21.278H10.9764ZM14.791 12.7293C14.1255 12.5088 13.7206 12.0672 13.5477 11.4016L12.4689 11.5127C12.5128 11.8845 12.5311 12.2392 12.6057 12.5821C12.6525 12.7819 12.7476 12.9672 12.8828 13.1218C13.1788 13.4564 13.5672 13.5711 14.0077 13.4546C14.3914 13.3512 14.64 13.1064 14.791 12.7269V12.7293ZM15.714 12.7246C15.7851 12.9473 15.9248 13.1418 16.1132 13.2805C16.3016 13.4191 16.5291 13.4948 16.7632 13.4966C17.2475 13.4966 17.7182 13.1975 17.8407 12.7334C17.9437 12.3409 17.9698 11.9283 18.0319 11.5109L16.9372 11.4045C16.7643 12.0737 16.3582 12.5052 15.714 12.7222V12.7246ZM4.05219 21.278C3.31448 20.526 3.25468 19.5092 2.84793 18.6178V21.278H4.05219ZM14.1705 6.4264H12.7798V7.10919H14.1705V6.4264ZM17.7128 7.11569V6.427H16.3268V7.1151L17.7128 7.11569ZM16.1735 11.3791H14.3268C14.3943 11.7586 14.7839 12.0625 15.2108 12.0778C15.6584 12.0926 16.0728 11.7982 16.1705 11.3785L16.1735 11.3791ZM12.0533 5.71643C11.6389 5.72589 11.3351 6.03742 11.3488 6.43645C11.3507 6.52627 11.3706 6.6148 11.4073 6.69685C11.4439 6.7789 11.4966 6.85283 11.5622 6.91432C11.6278 6.9758 11.705 7.02361 11.7893 7.05494C11.8737 7.08627 11.9634 7.10049 12.0533 7.09677V5.71643ZM18.444 7.108C18.8662 7.09027 19.1634 6.77696 19.1468 6.38029C19.1441 6.29116 19.1238 6.20344 19.0869 6.12222C19.0501 6.041 18.9974 5.96789 18.932 5.90714C18.8667 5.84638 18.7899 5.79918 18.7061 5.76827C18.6223 5.73736 18.5333 5.72335 18.444 5.72707V7.108ZM8.49738 20.4894L7.71172 21.278H8.49738V20.4894Z" fill="white"/>
</svg>
