<svg width="21" height="21" viewBox="0 0 21 21" fill="none" xmlns="http://www.w3.org/2000/svg">
<path d="M14.5255 20.7519C14.1673 20.6883 13.809 20.6421 13.4507 20.567C12.1264 20.2391 10.8571 19.7194 9.68315 19.0241C7.83814 17.9964 6.1669 16.6839 4.73103 15.1352C2.94188 13.2836 1.53411 11.0983 0.587828 8.70373C0.243392 7.82344 0.0481001 6.89192 0.00997955 5.94741C-0.0261399 5.48452 0.0360409 5.01923 0.192391 4.58204C0.348741 4.14486 0.595697 3.74566 0.91717 3.41065C1.46613 2.8328 1.99197 2.25496 2.58138 1.75223C2.76207 1.56332 2.97981 1.41371 3.22095 1.31274C3.46208 1.21177 3.72144 1.16163 3.98283 1.16542C4.24422 1.16922 4.50203 1.22686 4.74012 1.33478C4.97822 1.44271 5.19151 1.59861 5.36664 1.79268C6.30276 2.66523 7.1926 3.57821 8.06515 4.51433C8.3832 4.85556 8.56005 5.30471 8.56005 5.77117C8.56005 6.23764 8.3832 6.68676 8.06515 7.02799C7.60865 7.54805 7.1002 8.02764 6.60903 8.52459L6.44143 8.67484C7.73429 11.0264 9.67062 12.9607 12.0235 14.2511C12.4222 13.8408 12.8036 13.4594 13.1792 13.0954C13.4664 12.7593 13.8259 12.4926 14.2308 12.3153C14.5471 12.1766 14.8975 12.1355 15.2373 12.1973C15.577 12.259 15.8906 12.4209 16.1377 12.662C17.1085 13.5866 18.0619 14.54 18.9807 15.5166C19.2957 15.8518 19.4754 16.2919 19.485 16.7518C19.4946 17.2118 19.3335 17.659 19.0328 18.0071C18.4549 18.6947 17.7904 19.3419 17.1374 19.9718C16.6716 20.4033 16.0765 20.6693 15.4443 20.7287C15.399 20.7388 15.3546 20.7523 15.3114 20.7692L14.5255 20.7519ZM14.8144 19.5962C15.1358 19.6127 15.457 19.5598 15.7561 19.4411C16.0553 19.3225 16.3253 19.1409 16.548 18.9085C16.9872 18.452 17.4378 18.0013 17.8828 17.5448C17.9378 17.4878 17.9899 17.428 18.0388 17.3657C18.1179 17.2917 18.181 17.2021 18.2241 17.1027C18.2671 17.0033 18.2894 16.8962 18.2894 16.7879C18.2894 16.6795 18.2671 16.5723 18.2241 16.4729C18.181 16.3735 18.1179 16.2841 18.0388 16.21C17.6863 15.8228 17.305 15.453 16.9352 15.0543C16.4498 14.5689 15.9702 14.0835 15.4848 13.6097C15.4121 13.5283 15.3231 13.4631 15.2235 13.4185C15.1239 13.3738 15.016 13.3508 14.9069 13.3508C14.7978 13.3508 14.6899 13.3738 14.5903 13.4185C14.4907 13.4631 14.4017 13.5283 14.3291 13.6097C14.2597 13.6675 14.1903 13.7368 14.1268 13.8004L12.7342 15.193C12.5979 15.3473 12.4125 15.4499 12.2094 15.4836C12.0063 15.5173 11.7978 15.48 11.6189 15.3779C11.3358 15.2334 11.0411 15.089 10.7811 14.9272C9.57312 14.1903 8.47911 13.2813 7.53358 12.2286C6.65773 11.335 5.93356 10.3044 5.38971 9.17757C5.24292 8.96037 5.18794 8.69397 5.23664 8.43639C5.28535 8.1788 5.43383 7.9509 5.64978 7.80228C6.14673 7.32267 6.63792 6.84308 7.11176 6.34613C7.18776 6.27631 7.24843 6.19145 7.28994 6.09695C7.33145 6.00246 7.35286 5.90038 7.35286 5.79717C7.35286 5.69396 7.33145 5.59188 7.28994 5.49738C7.24843 5.40288 7.18776 5.31803 7.11176 5.2482C7.05814 5.17918 6.99813 5.11533 6.93259 5.0575L4.6212 2.74611C4.54051 2.6328 4.4339 2.54043 4.31027 2.47669C4.18663 2.41295 4.04956 2.3797 3.91046 2.3797C3.77136 2.3797 3.63428 2.41295 3.51065 2.47669C3.38701 2.54043 3.2804 2.6328 3.19971 2.74611C2.72588 3.21417 2.24624 3.67067 1.80129 4.15606C1.58487 4.38565 1.41075 4.65173 1.287 4.94196C1.08426 5.56316 1.06821 6.23015 1.2408 6.86039C1.45887 7.83598 1.80065 8.77975 2.25782 9.66876C3.04902 11.2411 4.05223 12.6973 5.23946 13.9968C7.27829 16.3211 9.85832 18.1073 12.7515 19.1975C13.4159 19.4274 14.1117 19.554 14.8144 19.573V19.5962Z" fill="#FFBE2E"/>
<path d="M20.7334 9.31055C20.6121 9.65726 20.404 9.82482 20.1555 9.80749C19.9071 9.79015 19.6355 9.59946 19.5777 9.22964C19.3194 7.7887 18.7407 6.42413 17.8846 5.23669C16.7914 3.67621 15.2645 2.47073 13.4929 1.7696C12.8256 1.54136 12.1466 1.34848 11.4589 1.19175C11.3768 1.17996 11.298 1.15163 11.2273 1.10848C11.1565 1.06533 11.0952 1.00828 11.0471 0.940743C10.999 0.873209 10.9652 0.79663 10.9476 0.71562C10.93 0.634611 10.929 0.550843 10.9447 0.469442C10.9604 0.386947 10.9939 0.308894 11.0429 0.240687C11.0919 0.17248 11.1552 0.115753 11.2284 0.0744993C11.3015 0.0332456 11.3828 0.00844985 11.4665 0.00180978C11.5502 -0.0048303 11.6345 0.00684954 11.7132 0.036056C13.3325 0.32482 14.8667 0.972454 16.2031 1.93141C17.4751 2.83387 18.5455 3.99094 19.3465 5.32917C20.0369 6.48434 20.5127 7.75487 20.7508 9.07939C20.7608 9.12468 20.7743 9.1691 20.7912 9.21229L20.7334 9.31055Z" fill="#FFBE2E"/>
<path d="M11.3434 3.73428C11.7043 3.81057 12.061 3.90507 12.4124 4.01742C13.5735 4.40328 14.6084 5.09649 15.4071 6.02339C16.2058 6.95028 16.7384 8.07623 16.9485 9.28161C16.9673 9.3564 16.971 9.43421 16.9593 9.51044C16.9476 9.58667 16.9209 9.65977 16.8805 9.72547C16.8401 9.79117 16.7869 9.84812 16.7242 9.89297C16.6614 9.93781 16.5903 9.96966 16.5151 9.98661C16.4415 10.0067 16.3647 10.012 16.289 10.0022C16.2133 9.99237 16.1403 9.96768 16.0742 9.92954C16.0081 9.8914 15.9503 9.84055 15.904 9.77993C15.8577 9.7193 15.8238 9.6501 15.8043 9.57632C15.6889 9.11179 15.5462 8.65449 15.3767 8.20682C15.015 7.36068 14.4476 6.61833 13.7261 6.04716C13.0045 5.47599 12.1517 5.09411 11.2451 4.93622C11.1058 4.92526 10.9752 4.86419 10.8775 4.76432C10.7797 4.66445 10.7215 4.53255 10.7135 4.39304C10.701 4.26082 10.7343 4.12832 10.808 4.01781C10.8817 3.90731 10.9911 3.82555 11.118 3.78631C11.1915 3.76245 11.2669 3.74504 11.3434 3.73428Z" fill="#FFBE2E"/>
</svg>
