<svg width="17" height="17" viewBox="0 0 17 17" fill="#000000" xmlns="http://www.w3.org/2000/svg">
  <path d="M2.53462 0.417243L8.49964 6.38227L14.4338 0.44815C14.5648 0.308632 14.7227 0.197023 14.898 0.120015C15.0733 0.0430066 15.2623 0.00218565 15.4537 0C15.8635 0 16.2566 0.162812 16.5464 0.452621C16.8362 0.742429 16.999 1.13549 16.999 1.54534C17.0026 1.73481 16.9675 1.92301 16.8957 2.09839C16.824 2.27378 16.7171 2.43266 16.5818 2.56527L10.5704 8.49939L16.5818 14.5108C16.8365 14.7599 16.9858 15.0974 16.999 15.4534C16.999 15.8633 16.8362 16.2563 16.5464 16.5462C16.2566 16.836 15.8635 16.9988 15.4537 16.9988C15.2567 17.007 15.0602 16.9741 14.8767 16.9022C14.6931 16.8304 14.5265 16.7212 14.3874 16.5815L8.49964 10.6165L2.55007 16.5661C2.4195 16.7009 2.26351 16.8086 2.0911 16.8829C1.9187 16.9572 1.7333 16.9965 1.54559 16.9988C1.13574 16.9988 0.74268 16.836 0.452872 16.5462C0.163064 16.2563 0.000251438 15.8633 0.000251438 15.4534C-0.00335152 15.264 0.0318003 15.0758 0.10355 14.9004C0.175299 14.725 0.282133 14.5661 0.417494 14.4335L6.42888 8.49939L0.417494 2.488C0.162798 2.23883 0.0134481 1.90141 0.000251438 1.54534C0.000251438 1.13549 0.163064 0.742429 0.452872 0.452621C0.74268 0.162812 1.13574 0 1.54559 0C1.91648 0.00463603 2.27191 0.154534 2.53462 0.417243Z" fill="black"/>
</svg>
