<svg width="24" height="24" viewBox="0 0 24 24" fill="none" xmlns="http://www.w3.org/2000/svg">
<path d="M21.3231 17.6009C20.9891 17.5675 20.6739 17.4304 20.4217 17.2088C20.1695 16.9872 19.9929 16.6923 19.9169 16.3653C19.8824 16.1953 19.8685 16.0217 19.8756 15.8483C19.8756 14.4576 19.8756 13.0669 19.8756 11.6762C19.8309 11.2678 19.9458 10.8579 20.1963 10.5323C20.4468 10.2066 20.8135 9.99038 21.2197 9.92879L21.2869 9.90295C21.1529 7.60858 20.1745 5.445 18.5404 3.82897C16.9062 2.21294 14.7318 1.25879 12.4361 1.15034C9.98235 1.03007 7.58001 1.8812 5.74926 3.51939C3.91851 5.15758 2.80676 7.45097 2.65472 9.90295L2.78396 9.93914C3.16564 10.0026 3.50977 10.2064 3.7489 10.5106C3.98803 10.8147 4.10489 11.1973 4.07643 11.5832C4.07643 13.0307 4.07643 14.4766 4.07643 15.9207C4.08957 16.1725 4.04345 16.4238 3.94189 16.6546C3.84032 16.8853 3.68608 17.089 3.49154 17.2494C3.297 17.4097 3.06759 17.5223 2.8217 17.5779C2.57581 17.6336 2.32033 17.6308 2.07569 17.5699C1.54304 17.4937 1.05235 17.238 0.684774 16.845C0.317201 16.4521 0.0947513 15.9454 0.0542529 15.4089C-0.0180843 14.283 -0.0180843 13.1536 0.0542529 12.0278C0.0842551 11.6398 0.216266 11.2667 0.436882 10.9463C0.657498 10.6258 0.958847 10.3693 1.3105 10.2028C1.36567 10.1775 1.41225 10.1366 1.44442 10.0852C1.47658 10.0337 1.49296 9.97396 1.49149 9.9133C1.60715 7.85105 2.32785 5.86859 3.56361 4.21355C4.79937 2.55852 6.49537 1.30428 8.43978 0.607511C9.83689 0.110419 11.3235 -0.0851031 12.8016 0.0338201C14.2797 0.152743 15.7159 0.583419 17.0156 1.29748C18.3153 2.01154 19.4489 2.99279 20.342 4.17663C21.235 5.36048 21.8672 6.72007 22.1968 8.16587C22.3089 8.75055 22.39 9.34073 22.4398 9.93396C22.4402 9.99157 22.457 10.0479 22.4881 10.0964C22.5192 10.1449 22.5634 10.1836 22.6156 10.208C23.0175 10.415 23.3531 10.7307 23.5843 11.1192C23.8156 11.5076 23.9331 11.9532 23.9235 12.4052C23.9235 13.3116 23.9235 14.2164 23.9235 15.1194C23.9311 15.5676 23.8138 16.0092 23.5847 16.3945C23.3555 16.7798 23.0235 17.0937 22.626 17.301C22.5701 17.3274 22.5237 17.3703 22.4932 17.424C22.4626 17.4776 22.4494 17.5394 22.4553 17.6009C22.477 18.1632 22.4597 18.7264 22.4036 19.2863C22.2817 20.0948 21.8752 20.8333 21.2573 21.3688C20.6393 21.9043 19.8505 22.2016 19.0329 22.2073C18.5159 22.2073 17.9989 22.2073 17.4819 22.2073C17.4253 22.2028 17.3689 22.2171 17.3212 22.2479C17.2736 22.2788 17.2373 22.3244 17.2182 22.3779C17.0831 22.675 16.8646 22.9264 16.5893 23.1017C16.314 23.277 15.9936 23.3686 15.6673 23.3653H13.9044C13.4505 23.3667 13.0143 23.1888 12.6909 22.8702C12.3675 22.5517 12.183 22.1183 12.1776 21.6644C12.1636 21.2177 12.3271 20.7837 12.6323 20.4572C12.9375 20.1307 13.3595 19.9384 13.8061 19.9222C14.4627 19.886 15.1244 19.8912 15.781 19.9222C16.0937 19.93 16.3976 20.0271 16.6569 20.2021C16.9161 20.3771 17.1199 20.6226 17.2441 20.9096C17.2803 20.9716 17.3526 21.0647 17.4095 21.0647C18.0681 21.0872 18.7274 21.0734 19.3844 21.0234C19.9172 20.9535 20.4077 20.696 20.7677 20.2971C21.1278 19.8982 21.3338 19.384 21.349 18.8468C21.3283 18.4332 21.3231 18.0145 21.3231 17.6009ZM21.0181 13.7493V15.9465C21.0181 16.3188 21.2042 16.4635 21.5713 16.4635C21.8921 16.4419 22.1935 16.302 22.417 16.0708C22.6405 15.8397 22.7702 15.5338 22.781 15.2124C22.8017 14.2508 22.8017 13.2892 22.781 12.3276C22.7712 12.0152 22.6502 11.7164 22.4399 11.4852C22.2295 11.254 21.9435 11.1054 21.6333 11.0662C21.2094 11.0248 21.0181 11.1954 21.0181 11.6142V13.7493ZM2.9235 13.7493V11.5315C2.93397 11.4612 2.92785 11.3894 2.90558 11.3219C2.8833 11.2544 2.84552 11.193 2.79526 11.1428C2.745 11.0925 2.68366 11.0547 2.61616 11.0324C2.54866 11.0102 2.47682 11.004 2.40651 11.0145C2.07741 11.0273 1.76528 11.1637 1.53239 11.3966C1.2995 11.6295 1.16304 11.9417 1.15026 12.2708C1.15026 13.2324 1.15026 14.1939 1.15026 15.1555C1.16149 15.4679 1.28377 15.766 1.49509 15.9963C1.70641 16.2265 1.99291 16.3739 2.30314 16.4118C2.73224 16.4532 2.91322 16.2929 2.91839 15.8638L2.9235 13.7493ZM14.7419 22.2073C15.0366 22.2073 15.3312 22.2073 15.6259 22.2073C15.7036 22.2108 15.7812 22.1984 15.8539 22.1707C15.9266 22.1431 15.9929 22.1008 16.0486 22.0466C16.1044 21.9923 16.1484 21.9272 16.1779 21.8552C16.2075 21.7832 16.222 21.706 16.2205 21.6282C16.2233 21.5523 16.2106 21.4766 16.1831 21.4058C16.1557 21.3349 16.1141 21.2704 16.0609 21.2162C16.0076 21.162 15.9438 21.1192 15.8735 21.0905C15.8032 21.0618 15.7277 21.0477 15.6517 21.0492C15.0572 21.0492 14.4627 21.0492 13.863 21.0492C13.7853 21.0462 13.7078 21.0595 13.6355 21.0882C13.5632 21.1169 13.4976 21.1604 13.4431 21.2158C13.3886 21.2713 13.3463 21.3376 13.3189 21.4104C13.2915 21.4832 13.2796 21.5609 13.284 21.6386C13.2838 21.7159 13.2995 21.7925 13.33 21.8636C13.3605 21.9347 13.4052 21.9988 13.4614 22.0521C13.5175 22.1053 13.5839 22.1465 13.6565 22.1732C13.7291 22.1999 13.8064 22.2115 13.8837 22.2073C14.1835 22.2228 14.4678 22.2176 14.7522 22.2176L14.7419 22.2073Z" fill="#FFBE2E"/>
<path d="M8.31669 15.3416C7.85577 15.338 7.40417 15.2113 7.0087 14.9745C6.64506 14.7538 6.34695 14.44 6.14518 14.0656C5.94341 13.6911 5.84531 13.2696 5.861 12.8445C5.861 11.2315 5.861 9.61852 5.861 8.00552C5.85298 7.6764 5.91249 7.34911 6.03588 7.04389C6.15926 6.73868 6.34388 6.46201 6.57836 6.23093C6.81284 5.99984 7.09217 5.81926 7.39915 5.70034C7.70614 5.58141 8.03424 5.52666 8.3632 5.53947H15.601C15.9302 5.52589 16.2586 5.58011 16.566 5.69876C16.8733 5.81741 17.1529 5.99798 17.3876 6.22922C17.6222 6.46046 17.8068 6.73745 17.9299 7.04301C18.0531 7.34858 18.1121 7.6762 18.1033 8.00552C18.1033 9.62369 18.1033 11.2418 18.1033 12.8652C18.1108 13.1961 18.05 13.5251 17.9247 13.8315C17.7994 14.138 17.6124 14.4153 17.3752 14.6462C17.1379 14.8771 16.8557 15.0566 16.546 15.1736C16.2363 15.2906 15.9059 15.3425 15.5752 15.3261H12.6904C12.6208 15.3234 12.5515 15.3359 12.4872 15.3627C12.423 15.3895 12.3653 15.4299 12.3182 15.4811C11.6564 16.1463 10.9912 16.8064 10.3226 17.4612C10.1731 17.6184 9.98013 17.7275 9.76832 17.7745C9.55651 17.8214 9.33546 17.8042 9.13351 17.7249C8.92584 17.6637 8.74074 17.5429 8.60106 17.3775C8.46138 17.2121 8.37331 17.0093 8.34774 16.7943C8.33246 16.6223 8.33246 16.4493 8.34774 16.2773C8.31155 15.9723 8.31669 15.6673 8.31669 15.3416ZM9.45922 16.6185L9.51608 16.6495L9.70225 16.479C10.3743 15.812 11.0464 15.1503 11.7082 14.473C11.7974 14.3785 11.9059 14.3042 12.0263 14.2552C12.1467 14.2061 12.2762 14.1835 12.4061 14.1887C13.4401 14.1887 14.474 14.1887 15.508 14.1887C15.7048 14.2128 15.9045 14.1919 16.092 14.1275C16.2795 14.0631 16.4499 13.9569 16.5903 13.8169C16.7308 13.677 16.8375 13.507 16.9026 13.3197C16.9677 13.1324 16.9893 12.9328 16.9659 12.7359V8.13476C16.9895 7.93809 16.9679 7.73863 16.9028 7.55154C16.8378 7.36445 16.7309 7.19466 16.5903 7.0551C16.4498 6.91553 16.2792 6.80983 16.0916 6.74608C15.9041 6.68233 15.7045 6.66221 15.508 6.6872H8.44594C8.24895 6.66205 8.04884 6.68224 7.86086 6.74627C7.67288 6.81031 7.50202 6.91647 7.36135 7.05664C7.22068 7.19681 7.11391 7.36729 7.04921 7.55504C6.98451 7.74279 6.96361 7.94286 6.98806 8.13994V12.7359C6.98806 12.8393 6.98806 12.9428 6.98806 13.0461C7.01216 13.3201 7.12693 13.5781 7.31421 13.7794C7.50149 13.9807 7.75058 14.1138 8.02204 14.1577C8.25004 14.1863 8.47995 14.1966 8.70961 14.1887C9.2266 14.1887 9.42823 14.38 9.42823 14.9021L9.45922 16.6185Z" fill="#FFBE2E"/>
<path d="M11.9768 9.68582C12.2017 9.69116 12.4159 9.7836 12.574 9.94368C12.7322 10.1038 12.822 10.319 12.8246 10.544C12.8179 10.768 12.7238 10.9805 12.5625 11.136C12.4012 11.2916 12.1854 11.3778 11.9613 11.3764C11.7417 11.3698 11.533 11.2793 11.3782 11.1235C11.2233 10.9677 11.1341 10.7584 11.1289 10.5388C11.1316 10.3143 11.2216 10.0997 11.3799 9.9404C11.5382 9.78115 11.7523 9.68984 11.9768 9.68582Z" fill="#FFBE2E"/>
<path d="M10.0369 10.5337C10.0356 10.7581 9.94587 10.973 9.78716 11.1317C9.62845 11.2904 9.41353 11.3802 9.18908 11.3815C8.96507 11.3761 8.7521 11.2833 8.5956 11.123C8.43911 10.9626 8.3515 10.7474 8.35156 10.5233C8.35681 10.3029 8.44679 10.0929 8.60274 9.93693C8.75868 9.78099 8.96861 9.69107 9.18908 9.68582C9.30042 9.68582 9.41072 9.70774 9.51359 9.75035C9.61645 9.79296 9.70988 9.85542 9.78861 9.93415C9.86735 10.0129 9.92984 10.1063 9.97245 10.2092C10.0151 10.3121 10.0369 10.4223 10.0369 10.5337Z" fill="#FFBE2E"/>
<path d="M15.5944 10.5388C15.5917 10.7619 15.5012 10.9749 15.3425 11.1317C15.1838 11.2885 14.9696 11.3764 14.7465 11.3764C14.6354 11.375 14.5258 11.3517 14.4237 11.3078C14.3216 11.2639 14.2292 11.2002 14.1519 11.1204C14.0745 11.0406 14.0137 10.9464 13.9729 10.843C13.9321 10.7397 13.9122 10.6293 13.9142 10.5182C13.9182 10.2978 14.008 10.0876 14.1643 9.93223C14.3207 9.77685 14.5313 9.68847 14.7517 9.68582C14.9762 9.68854 15.1905 9.77962 15.3482 9.9393C15.506 10.099 15.5944 10.3144 15.5944 10.5388Z" fill="#FFBE2E"/>
</svg>
