<svg width="36" height="29" viewBox="0 0 36 29" fill="none" xmlns="http://www.w3.org/2000/svg">
<path d="M36 5.35362C35.9324 6.00552 35.8554 6.65554 35.7999 7.30838C35.4937 10.9323 35.1909 14.5569 34.8916 18.1821C34.8183 19.0594 34.7432 19.9358 34.6736 20.8122C34.5497 22.3687 33.3586 23.4424 31.803 23.3832C31.5015 23.3729 31.2019 23.3372 30.8534 23.309C30.8534 23.9581 30.8684 24.5762 30.8487 25.1942C30.8337 25.6724 30.8402 26.1646 30.7256 26.623C30.4438 27.7652 29.4049 28.5514 28.2298 28.5956C28.1124 28.5956 27.9959 28.5956 27.8785 28.5956H2.95796C1.11687 28.5956 0 27.4806 0 25.6414V10.2166C0 8.4027 1.1272 7.27174 2.93448 7.26798C3.43796 7.26798 3.94239 7.25577 4.44588 7.26798C4.69292 7.27644 4.75866 7.18156 4.78214 6.94955C4.93338 5.44661 5.08932 3.94368 5.26403 2.43511C5.43969 0.913389 6.70497 -0.117067 8.22294 0.0106827C12.2721 0.350722 16.3212 0.69233 20.3704 1.0355C24.4559 1.37742 28.5407 1.71526 32.625 2.04903C32.9631 2.07721 33.3032 2.09977 33.6385 2.15143C34.838 2.3393 35.6421 3.08324 35.938 4.26962C35.9552 4.32505 35.9759 4.37932 36 4.43213V5.35362ZM1.40618 17.1996V25.6827C1.40618 26.6887 1.90966 27.1856 2.92414 27.1856H27.9104C28.9437 27.1856 29.4453 26.6831 29.4463 25.6564C29.4463 22.9686 29.4463 20.2809 29.4463 17.5932V17.1977L1.40618 17.1996ZM30.8534 21.8962C31.2686 21.9282 31.618 21.9733 31.9684 21.977C32.289 21.985 32.6007 21.8707 32.8402 21.6574C33.0797 21.4441 33.2291 21.1476 33.2581 20.8282C33.3614 19.7301 33.446 18.6311 33.5399 17.5312C33.7171 15.4145 33.894 13.2982 34.0706 11.1822C34.2434 9.12411 34.4219 7.06696 34.5844 5.00794C34.6483 4.19541 34.1551 3.6074 33.3586 3.53789C30.8149 3.31621 28.2711 3.10673 25.7265 2.89538C23.0538 2.67369 20.3811 2.45451 17.7083 2.23784C14.5099 1.97013 11.3133 1.69397 8.11584 1.4272C7.34183 1.36332 6.76133 1.81891 6.66457 2.58728C6.53495 3.61116 6.43727 4.63878 6.32737 5.66547C6.27195 6.1868 6.21934 6.70813 6.16016 7.27455H6.64955C13.7033 7.27455 20.7568 7.27455 27.8099 7.27455C28.1378 7.26849 28.4653 7.3 28.7859 7.36849C30.0512 7.66532 30.8525 8.75119 30.8525 10.1546C30.8525 13.9232 30.8525 17.6915 30.8525 21.4594L30.8534 21.8962ZM1.42402 15.7408H29.4247V12.8608H1.42402V15.7408ZM29.4472 11.4198C29.4472 11.2733 29.4472 11.169 29.4472 11.0657C29.4472 10.6787 29.466 10.2889 29.435 9.90375C29.3805 9.22931 28.9033 8.76529 28.2298 8.69296C28.1248 8.68418 28.0195 8.68104 27.9142 8.68355C19.5854 8.68355 11.2535 8.68355 2.91852 8.68355C2.76646 8.68116 2.61452 8.69343 2.46481 8.72019C1.93127 8.82633 1.53582 9.14665 1.46537 9.67738C1.39022 10.2476 1.44845 10.8356 1.44845 11.4189L29.4472 11.4198Z" fill="black"/>
<path d="M23.1128 25.0975C22.0466 25.0975 20.9805 25.0975 19.9144 25.0975C19.2719 25.0975 19.037 24.8664 19.0352 24.2352C19.0352 22.8606 19.0352 21.4867 19.0352 20.1134C19.0352 19.5225 19.2775 19.2764 19.8674 19.2745C22.0354 19.2708 24.2034 19.2708 26.3714 19.2745C26.9528 19.2745 27.2026 19.5357 27.2045 20.1199C27.2045 21.4933 27.2045 22.8669 27.2045 24.2408C27.2045 24.8457 26.9547 25.0937 26.3469 25.0956C25.2695 25.1031 24.1911 25.0975 23.1128 25.0975ZM25.7796 20.7052H20.4676V23.6594H25.7796V20.7052Z" fill="black"/>
</svg>
