<svg width="68" height="68" viewBox="0 0 68 68" fill="none" xmlns="http://www.w3.org/2000/svg">
<circle cx="34" cy="34" r="33.5" fill="#F6F6F6" stroke="#C8C8C8"/>
<path d="M47 34.5C47 27.5965 41.4035 22 34.5 22C27.5965 22 22 27.5965 22 34.5C22 40.7391 26.5711 45.9105 32.5469 46.8481V38.1133H29.373V34.5H32.5469V31.7461C32.5469 28.6133 34.4131 26.8828 37.2684 26.8828C38.6359 26.8828 40.0664 27.127 40.0664 27.127V30.2031H38.4902C36.9374 30.2031 36.4531 31.1667 36.4531 32.1553V34.5H39.9199L39.3657 38.1133H36.4531V46.8481C42.4289 45.9105 47 40.7392 47 34.5Z" fill="#1877F2"/>
<path d="M39.3657 38.1133L39.9199 34.5H36.4531V32.1553C36.4531 31.1666 36.9374 30.2031 38.4902 30.2031H40.0664V27.127C40.0664 27.127 38.6359 26.8828 37.2683 26.8828C34.4131 26.8828 32.5469 28.6133 32.5469 31.7461V34.5H29.373V38.1133H32.5469V46.8481C33.193 46.9494 33.846 47.0002 34.5 47C35.154 47.0002 35.807 46.9494 36.4531 46.8481V38.1133H39.3657Z" fill="white"/>
</svg>
