<svg width="68" height="68" viewBox="0 0 68 68" fill="none" xmlns="http://www.w3.org/2000/svg">
<circle cx="34" cy="34" r="33.5" fill="#F6F6F6" stroke="#C8C8C8"/>
<path d="M30.4122 22.6852C27.885 23.562 25.7054 25.226 24.1938 27.433C22.6822 29.64 21.9181 32.2736 22.0139 34.9469C22.1096 37.6202 23.0601 40.1923 24.7257 42.2855C26.3914 44.3787 28.6844 45.8826 31.2679 46.5763C33.3624 47.1167 35.5568 47.1405 37.6625 46.6455C39.5701 46.217 41.3337 45.3004 42.7806 43.9856C44.2866 42.5754 45.3797 40.7813 45.9424 38.7964C46.5541 36.6378 46.6629 34.3678 46.2606 32.1606H34.4988V37.0396H41.3104C41.1743 37.8178 40.8826 38.5605 40.4527 39.2233C40.0228 39.8861 39.4637 40.4553 38.8087 40.897C37.9769 41.4472 37.0393 41.8174 36.056 41.9838C35.0698 42.1672 34.0582 42.1672 33.0721 41.9838C32.0725 41.7772 31.127 41.3646 30.2956 40.7725C28.9601 39.8271 27.9573 38.484 27.4303 36.9349C26.8944 35.3568 26.8944 33.6459 27.4303 32.0678C27.8054 30.9616 28.4255 29.9544 29.2443 29.1214C30.1814 28.1506 31.3677 27.4567 32.6732 27.1158C33.9787 26.7749 35.3528 26.8001 36.6448 27.1888C37.6542 27.4986 38.5772 28.0399 39.3403 28.7696C40.1083 28.0055 40.875 27.2395 41.6404 26.4714C42.0357 26.0584 42.4664 25.6652 42.8557 25.2423C41.691 24.1584 40.3237 23.3149 38.8324 22.7603C36.1166 21.7742 33.1451 21.7477 30.4122 22.6852Z" fill="white"/>
<path d="M30.4124 22.6853C33.1451 21.7471 36.1166 21.7729 38.8326 22.7584C40.3242 23.3168 41.6908 24.1643 42.8539 25.2522C42.4587 25.6751 42.0418 26.0703 41.6386 26.4814C40.8719 27.2468 40.1058 28.0095 39.3404 28.7697C38.5774 28.04 37.6544 27.4986 36.645 27.1888C35.3534 26.7988 33.9793 26.7721 32.6735 27.1116C31.3677 27.4511 30.1806 28.1438 29.2425 29.1135C28.4237 29.9465 27.8036 30.9537 27.4285 32.0599L23.332 28.8882C24.7983 25.9805 27.3371 23.7564 30.4124 22.6853Z" fill="#E33629"/>
<path d="M22.245 32.0302C22.4652 30.939 22.8308 29.8822 23.3319 28.8882L27.4283 32.0677C26.8925 33.6459 26.8925 35.3567 27.4283 36.9349C26.0635 37.9888 24.698 39.048 23.3319 40.1124C22.0774 37.6153 21.6948 34.7701 22.245 32.0302Z" fill="#F8BD00"/>
<path d="M34.4987 32.1587H46.2604C46.6628 34.3659 46.5539 36.6359 45.9423 38.7944C45.3796 40.7794 44.2865 42.5734 42.7805 43.9837C41.4585 42.9522 40.1306 41.9285 38.8086 40.897C39.464 40.4549 40.0234 39.885 40.4533 39.2215C40.8832 38.558 41.1747 37.8146 41.3103 37.0357H34.4987C34.4967 35.4114 34.4987 33.785 34.4987 32.1587Z" fill="#587DBD"/>
<path d="M23.3298 40.1125C24.696 39.0586 26.0615 37.9994 27.4263 36.9349C27.9543 38.4846 28.9586 39.8277 30.2956 40.7725C31.1295 41.3619 32.0771 41.7711 33.0779 41.974C34.0641 42.1574 35.0757 42.1574 36.0619 41.974C37.0452 41.8076 37.9828 41.4373 38.8146 40.8871C40.1366 41.9187 41.4645 42.9423 42.7865 43.9738C41.3398 45.2894 39.5762 46.2066 37.6684 46.6356C35.5627 47.1306 33.3683 47.1069 31.2738 46.5665C29.6172 46.1241 28.0699 45.3444 26.7287 44.2762C25.3092 43.1492 24.1498 41.7289 23.3298 40.1125Z" fill="#319F43"/>
</svg>
