<svg width="34" height="25" viewBox="0 0 34 25" fill="none" xmlns="http://www.w3.org/2000/svg">
<path d="M2.42857 0H14.5714C15.2155 0 15.8332 0.255867 16.2887 0.711312C16.7441 1.16676 17 1.78447 17 2.42857C17 3.07267 16.7441 3.69039 16.2887 4.14583C15.8332 4.60128 15.2155 4.85714 14.5714 4.85714H2.42857C1.78447 4.85714 1.16676 4.60128 0.711312 4.14583C0.255867 3.69039 0 3.07267 0 2.42857C0 1.78447 0.255867 1.16676 0.711312 0.711312C1.16676 0.255867 1.78447 0 2.42857 0ZM19.4286 19.4286H31.5714C32.2155 19.4286 32.8332 19.6844 33.2887 20.1399C33.7441 20.5953 34 21.213 34 21.8571C34 22.5012 33.7441 23.119 33.2887 23.5744C32.8332 24.0298 32.2155 24.2857 31.5714 24.2857H19.4286C18.7845 24.2857 18.1668 24.0298 17.7113 23.5744C17.2559 23.119 17 22.5012 17 21.8571C17 21.213 17.2559 20.5953 17.7113 20.1399C18.1668 19.6844 18.7845 19.4286 19.4286 19.4286ZM2.42857 9.71429H31.5714C32.2155 9.71429 32.8332 9.97015 33.2887 10.4256C33.7441 10.881 34 11.4988 34 12.1429C34 12.787 33.7441 13.4047 33.2887 13.8601C32.8332 14.3156 32.2155 14.5714 31.5714 14.5714H2.42857C1.78447 14.5714 1.16676 14.3156 0.711312 13.8601C0.255867 13.4047 0 12.787 0 12.1429C0 11.4988 0.255867 10.881 0.711312 10.4256C1.16676 9.97015 1.78447 9.71429 2.42857 9.71429Z" fill="black"/>
</svg>
