<svg width="20" height="21" viewBox="0 0 20 21" fill="none" xmlns="http://www.w3.org/2000/svg">
<path d="M2.78216 20.039C2.44307 19.9328 2.08162 19.8709 1.76879 19.7125C0.666048 19.1546 0.0784179 18.2397 0.00942283 17.0029C-0.00821795 16.6892 0.00432163 16.3756 0.00432163 16.062C0.00432163 11.778 0.00432163 7.49395 0.00432163 3.20972C0.00432163 1.80081 0.811098 0.629069 2.11612 0.18609C2.45574 0.0729879 2.81113 0.0143746 3.16908 0.0124261C5.76423 -0.00168654 8.35939 -0.00377864 10.9545 0.00615247C12.7516 0.0104647 14.1173 1.3837 14.1275 3.1815C14.1301 3.66394 14.1301 4.14651 14.1275 4.62922C14.1252 5.12786 13.8049 5.47715 13.3513 5.48068C12.8903 5.48421 12.5673 5.13139 12.5634 4.62137C12.5614 4.178 12.5634 3.73463 12.5634 3.29126C12.5634 2.22144 11.915 1.56991 10.8507 1.56952C9.44227 1.56952 8.03376 1.56952 6.62511 1.56952C5.48395 1.56952 4.34278 1.56678 3.20162 1.56952C2.42229 1.57226 1.83583 2.00466 1.63355 2.73185C1.59061 2.89651 1.5703 3.06624 1.57318 3.23638C1.57004 7.76183 1.56938 12.2873 1.57121 16.8127C1.57121 17.8037 2.23764 18.4717 3.2271 18.4729C5.78958 18.4748 8.35234 18.4748 10.9153 18.4729C11.8934 18.4729 12.5595 17.8037 12.5646 16.8264C12.5669 16.356 12.5646 15.8856 12.5646 15.4179C12.5669 14.9083 12.8958 14.5555 13.3568 14.5633C13.81 14.5692 14.1315 14.9161 14.1275 15.4187C14.1228 16.0573 14.1558 16.701 14.0848 17.3325C13.928 18.7152 12.837 19.7948 11.4583 20.0022C11.4216 20.0111 11.3859 20.0236 11.3517 20.0394L2.78216 20.039Z" fill="white"/>
<path d="M19.9986 10.4922C19.854 11.0379 19.4957 11.433 19.1001 11.8125C18.6242 12.2677 18.1702 12.7451 17.6979 13.2042C17.5797 13.3237 17.425 13.4002 17.2583 13.4215C17.0916 13.4428 16.9226 13.4077 16.7782 13.3218C16.483 13.1564 16.3156 12.8306 16.4034 12.4942C16.4548 12.3212 16.5472 12.163 16.6727 12.0332C17.0432 11.6412 17.434 11.2664 17.8586 10.8435H17.5881C14.5826 10.8435 11.5772 10.8435 8.5717 10.8435C8.31257 10.8435 8.07619 10.7937 7.89586 10.5984C7.67868 10.3632 7.61518 10.0837 7.73043 9.78265C7.84568 9.48158 8.07658 9.31772 8.39686 9.28166C8.47512 9.27574 8.55364 9.27417 8.63207 9.27695H17.8366C17.7802 9.21188 17.7465 9.16875 17.7081 9.12994C17.3403 8.75988 16.9632 8.39962 16.6061 8.01897C16.1772 7.5607 16.396 6.85311 16.9981 6.71551C17.1192 6.68384 17.2464 6.68462 17.3671 6.7178C17.4877 6.75097 17.5975 6.81535 17.6853 6.90446C18.3161 7.52738 18.957 8.14167 19.556 8.79477C19.7622 9.01979 19.8555 9.34791 20.0006 9.62937L19.9986 10.4922Z" fill="white"/>
</svg>
