<svg width="23" height="27" viewBox="0 0 23 27" fill="none" xmlns="http://www.w3.org/2000/svg">
<path fill-rule="evenodd" clip-rule="evenodd" d="M2.39894 8.66416C2.39894 6.36628 3.31176 4.16252 4.93661 2.53767C6.56146 0.912829 8.76522 0 11.0631 0C13.361 0 15.5647 0.912829 17.1896 2.53767C18.8144 4.16252 19.7273 6.36628 19.7273 8.66416V13.323L21.9824 17.8333C22.0862 18.0409 22.1353 18.2716 22.1248 18.5035C22.1144 18.7353 22.0449 18.9607 21.9228 19.1581C21.8008 19.3556 21.6303 19.5185 21.4276 19.6315C21.2248 19.7445 20.9966 19.8038 20.7645 19.8038H15.8581C15.5828 20.8661 14.9625 21.8069 14.0946 22.4785C13.2268 23.1501 12.1605 23.5145 11.0631 23.5145C9.96572 23.5145 8.89941 23.1501 8.03155 22.4785C7.16369 21.8069 6.54342 20.8661 6.2681 19.8038H1.36171C1.12961 19.8038 0.90135 19.7445 0.698616 19.6315C0.495881 19.5185 0.325402 19.3556 0.20337 19.1581C0.081338 18.9607 0.0118052 18.7353 0.00137548 18.5035C-0.00905422 18.2716 0.0399656 18.0409 0.143779 17.8333L2.39894 13.323V8.66416ZM8.91934 19.8038C9.13661 20.1801 9.44911 20.4926 9.82541 20.7098C10.2017 20.9271 10.6286 21.0414 11.0631 21.0414C11.4976 21.0414 11.9245 20.9271 12.3008 20.7098C12.6771 20.4926 12.9896 20.1801 13.2069 19.8038H8.91934ZM11.0631 2.47547C9.42176 2.47547 7.84764 3.1275 6.68704 4.2881C5.52643 5.4487 4.87441 7.02282 4.87441 8.66416V13.323C4.87438 13.7071 4.78497 14.086 4.61325 14.4295L3.1651 17.3283H18.9623L17.5142 14.4295C17.342 14.0861 17.2522 13.7072 17.2518 13.323V8.66416C17.2518 7.02282 16.5998 5.4487 15.4392 4.2881C14.2786 3.1275 12.7044 2.47547 11.0631 2.47547Z" fill="black"/>
</svg>
