<svg width="20" height="20" viewBox="0 0 20 20" fill="none" xmlns="http://www.w3.org/2000/svg">
<path d="M14.8433 20.0002C14.0428 19.6209 13.2831 19.1742 12.5937 18.6148C11.5981 17.806 10.7867 16.8563 10.3311 15.6373C10.1178 15.0768 10.0063 14.4827 10.0019 13.8829C9.99768 12.7574 10.0019 11.6313 10.0019 10.5057C10.0019 10.1509 10.1464 9.95417 10.4866 9.83833C11.9008 9.35565 13.3138 8.86983 14.7316 8.40019C14.903 8.3462 15.0867 8.34512 15.2587 8.39707C16.6832 8.8667 18.1015 9.35773 19.524 9.83624C19.7682 9.91868 19.9112 10.0846 20.0004 10.3132V14.2581C19.9415 14.5566 19.8992 14.8593 19.8209 15.152C19.4614 16.4972 18.6546 17.5471 17.6178 18.4395C16.8731 19.0704 16.045 19.5956 15.1569 20.0002H14.8433ZM18.7334 12.5419H18.7496C18.7496 12.0534 18.7434 11.565 18.7533 11.0771C18.7559 10.9347 18.7094 10.8741 18.5764 10.8298C17.431 10.4457 16.2882 10.0528 15.1423 9.66926C15.0515 9.64107 14.9544 9.64107 14.8636 9.66926C13.7156 10.0528 12.5749 10.4462 11.429 10.8293C11.2876 10.8767 11.2448 10.9415 11.2459 11.0902C11.2542 11.9773 11.2521 12.8602 11.2495 13.7457C11.243 14.452 11.4214 15.1477 11.7672 15.7636C12.4977 17.0733 13.6337 17.9442 14.9273 18.6336C14.9592 18.6439 14.9928 18.6474 15.0261 18.6441C15.0594 18.6408 15.0917 18.6306 15.1209 18.6143C16.0602 18.1071 16.917 17.4877 17.611 16.6653C18.2299 15.9347 18.6593 15.1082 18.7272 14.1386C18.7642 13.6111 18.7334 13.0752 18.7334 12.5419Z" fill="white"/>
<path d="M0.000260909 8.74776C0.000260909 6.6257 0.000260909 4.50364 0.000260909 2.38158C0.000260909 0.989368 0.991717 0 2.38915 0C5.53327 0 8.67723 0 11.821 0C12.9622 0 13.8644 0.716982 14.1128 1.82376C14.1489 1.99532 14.1664 2.17027 14.165 2.34558C14.1692 3.80354 14.1692 5.26149 14.165 6.71945C14.165 7.11395 13.9631 7.38007 13.6349 7.42756C13.2409 7.48444 12.9205 7.21048 12.9179 6.79773C12.9121 6.02335 12.9179 5.24845 12.9179 4.47407C12.9179 3.78423 12.9179 3.09386 12.9179 2.40402C12.9179 1.67347 12.4915 1.24819 11.7699 1.24819H2.39592C1.67895 1.24819 1.25054 1.67347 1.25054 2.38523C1.25054 6.62935 1.25054 10.8735 1.25054 15.1176C1.25054 15.8168 1.68208 16.2473 2.3834 16.2473C4.51172 16.2473 6.64023 16.2473 8.7689 16.2473C9.25262 16.2473 9.56362 16.6544 9.41177 17.0822C9.36801 17.2061 9.28642 17.313 9.17854 17.3879C9.07066 17.4629 8.94196 17.5019 8.81064 17.4997C8.36136 17.5033 7.91207 17.4997 7.46278 17.4997H2.38601C0.991192 17.4997 0.000782727 16.5082 0.000260909 15.1145C-8.69697e-05 12.9921 -8.69697e-05 10.8698 0.000260909 8.74776Z" fill="white"/>
<path d="M7.09527 6.67092C8.39668 6.67092 9.6981 6.67092 10.999 6.67092C11.4577 6.67092 11.7556 7.04194 11.6393 7.45782C11.6135 7.56291 11.5592 7.65882 11.4823 7.7349C11.4054 7.81098 11.3089 7.86427 11.2035 7.88885C11.1086 7.9109 11.0113 7.92071 10.9139 7.91807C8.35702 7.91807 5.80011 7.91807 3.2432 7.91807C3.1978 7.91807 3.15189 7.91807 3.10649 7.91807C2.74957 7.88884 2.49335 7.61802 2.50013 7.27832C2.50692 6.93861 2.77148 6.67562 3.1331 6.67249C3.86365 6.66727 4.59054 6.67249 5.31899 6.67249L7.09527 6.67092Z" fill="white"/>
<path d="M5.41491 11.2525C4.67393 11.2525 3.93276 11.2525 3.19143 11.2525C2.78129 11.2525 2.49689 10.9916 2.50003 10.6222C2.50316 10.2527 2.78285 10.0038 3.18205 10.0033C4.67062 10.0033 6.15937 10.0033 7.64829 10.0033C8.04853 10.0033 8.32666 10.259 8.32666 10.6232C8.32666 10.9874 8.05008 11.2494 7.63785 11.2525C6.89721 11.2525 6.15624 11.2525 5.41491 11.2525Z" fill="white"/>
<path d="M5.00005 4.57946C4.36865 4.57946 3.73725 4.58364 3.10637 4.57946C2.82981 4.57946 2.63673 4.42709 2.54124 4.17453C2.44574 3.92197 2.49427 3.68298 2.69778 3.51808C2.82759 3.41291 2.98708 3.35105 3.15385 3.34119C4.38378 3.3271 5.6137 3.32971 6.84362 3.33493C7.2282 3.33493 7.50112 3.60992 7.49903 3.96476C7.49694 4.31959 7.22195 4.57894 6.83528 4.58155C6.22319 4.5852 5.61162 4.58155 5.00005 4.58155V4.57946Z" fill="white"/>
<path d="M14.7271 14.6657C14.7856 14.589 14.8362 14.5233 14.8837 14.457C15.512 13.6193 16.1401 12.7819 16.768 11.945C16.9444 11.7096 17.1985 11.6146 17.4542 11.6913C17.7099 11.7681 17.8852 11.9523 17.8988 12.2231C17.9076 12.3773 17.867 12.5303 17.7829 12.6598C16.9581 13.7804 16.1246 14.8936 15.2824 15.9995C15.2315 16.0722 15.165 16.1327 15.0879 16.1767C15.0108 16.2206 14.9248 16.2469 14.8363 16.2536C14.7478 16.2602 14.6589 16.2472 14.5761 16.2154C14.4932 16.1835 14.4184 16.1337 14.3572 16.0694C13.7894 15.5152 13.2283 14.9543 12.6738 14.3865C12.6159 14.3288 12.5702 14.2601 12.5393 14.1844C12.5085 14.1087 12.4931 14.0275 12.4942 13.9458C12.4953 13.864 12.5127 13.7833 12.5455 13.7085C12.5784 13.6336 12.6259 13.5661 12.6853 13.5099C12.7433 13.4524 12.8121 13.407 12.8877 13.3762C12.9633 13.3454 13.0443 13.3298 13.1259 13.3304C13.2076 13.331 13.2883 13.3477 13.3635 13.3796C13.4387 13.4114 13.5068 13.4579 13.564 13.5161C13.9053 13.8459 14.2366 14.1862 14.5732 14.5212C14.6228 14.5687 14.6682 14.6104 14.7271 14.6657Z" fill="white"/>
</svg>
