<svg width="21" height="22" viewBox="0 0 21 22" fill="none" xmlns="http://www.w3.org/2000/svg">
<path d="M11.4395 0.0021931C11.5031 0.0219117 11.5655 0.0438245 11.6296 0.0602567C12.0399 0.165299 12.4044 0.402161 12.667 0.734453C12.9296 1.06675 13.0759 1.47608 13.0833 1.89956C13.0948 2.36788 13.0959 2.36514 13.5357 2.54096C13.7696 2.63463 14.0041 2.72994 14.2286 2.84496C14.3584 2.91124 14.4401 2.90795 14.5403 2.79457C14.8602 2.4347 15.2397 2.16521 15.7278 2.08251C16.3303 1.97953 16.878 2.10332 17.3316 2.51139C17.7335 2.87188 18.116 3.25346 18.4774 3.65452C19.1287 4.37863 19.1265 5.50423 18.4298 6.20479C18.1252 6.51153 18.0743 6.74377 18.2967 7.09432C18.4112 7.27507 18.4752 7.49308 18.5371 7.70122C18.5853 7.86554 18.6615 7.92908 18.8373 7.91703C19.2678 7.8869 19.6825 7.95427 20.0555 8.1909C20.6487 8.565 20.9713 9.10453 20.9866 9.8029C20.9998 10.3621 21.0206 10.9285 20.9499 11.4801C20.8316 12.4058 20.039 13.0685 19.1095 13.0904C18.6253 13.103 18.6286 13.1047 18.4522 13.5489C18.3638 13.7853 18.262 14.0164 18.1472 14.2412C18.0721 14.3798 18.1006 14.4565 18.2063 14.5518C18.5645 14.8744 18.8329 15.2534 18.9156 15.742C19.0153 16.3352 18.8932 16.8802 18.4933 17.3305C18.1301 17.7387 17.7441 18.1261 17.337 18.4906C16.619 19.1325 15.535 19.115 14.8098 18.4709C14.686 18.3494 14.57 18.2202 14.4625 18.0842C13.9975 18.2682 13.5861 18.4276 13.1781 18.5996C13.131 18.6199 13.0948 18.7091 13.0882 18.7727C13.0592 19.0361 13.0839 19.3127 13.0137 19.5636C12.7946 20.343 12.2792 20.8628 11.4718 20.9571C10.8277 21.0321 10.177 21.0321 9.53286 20.9571C8.57048 20.8437 7.92578 20.0412 7.9088 19.069C7.90113 18.6363 7.8995 18.6396 7.50238 18.4791C7.2433 18.3745 6.98477 18.266 6.73555 18.1417C6.62107 18.0869 6.55534 18.1 6.47428 18.1893C6.14563 18.5508 5.77043 18.834 5.27309 18.92C4.65633 19.0296 4.09982 18.8915 3.63589 18.4709C3.26233 18.1313 2.90411 17.7725 2.56123 17.4017C1.85793 16.642 1.84916 15.5065 2.58423 14.7725C2.86303 14.4937 2.92548 14.2878 2.71679 13.9509C2.57821 13.7318 2.52234 13.458 2.41499 13.2142C2.39728 13.1829 2.37287 13.1558 2.34352 13.135C2.31418 13.1142 2.2806 13.1001 2.24518 13.0937C2.04197 13.0718 1.83329 13.0937 1.63281 13.0625C0.811205 12.9261 0.221283 12.3504 0.0377908 11.5327C0.0282247 11.5013 0.0155674 11.4711 0 11.4423V9.55587C0.014789 9.51259 0.0328676 9.46987 0.0443701 9.4255C0.236079 8.68277 0.692885 8.18487 1.43288 7.9822C1.67772 7.91483 1.94557 7.92195 2.20355 7.91483C2.33227 7.911 2.39417 7.87923 2.4358 7.75051C2.51248 7.51115 2.58314 7.25755 2.7157 7.04996C2.92438 6.71803 2.86577 6.51043 2.58588 6.22835C1.84697 5.49 1.85848 4.3507 2.57273 3.58551C2.91726 3.21633 3.27383 2.85591 3.64903 2.5185C4.10804 2.10551 4.66071 1.97077 5.2687 2.08031C5.69589 2.15575 6.08334 2.37796 6.36418 2.70858C6.517 2.88221 6.64627 2.9315 6.85715 2.79949C7.04009 2.68557 7.25371 2.61984 7.45637 2.53932C7.89456 2.36514 7.89457 2.36678 7.90607 1.89682C7.91279 1.49826 8.04278 1.11156 8.27817 0.789856C8.51356 0.468156 8.8428 0.22725 9.22065 0.100241C9.3302 0.0640898 9.43974 0.0334121 9.54929 0L11.4395 0.0021931ZM1.22967 10.4837C1.22967 10.6957 1.22967 10.9071 1.22967 11.1191C1.23405 11.5633 1.51724 11.8525 1.95707 11.8586C2.23751 11.8624 2.51741 11.8586 2.79786 11.8586C3.13691 11.8646 3.35217 12.0229 3.44145 12.3515C3.61391 12.9842 3.86547 13.5926 4.19021 14.1624C4.37315 14.485 4.3359 14.7276 4.07408 14.996C3.88292 15.1916 3.68519 15.3794 3.49568 15.5777C3.19387 15.891 3.19168 16.2898 3.49568 16.6009C3.79967 16.912 4.09106 17.2034 4.39396 17.4997C4.69686 17.7961 5.10602 17.8026 5.41769 17.4997C5.60994 17.3157 5.79508 17.1234 5.9846 16.9361C6.26888 16.6551 6.50824 16.6162 6.85003 16.8107C7.40821 17.1277 8.00333 17.3748 8.62196 17.5463C8.98292 17.6471 9.13575 17.8541 9.13849 18.2331C9.13849 18.507 9.13849 18.7809 9.13849 19.0548C9.14561 19.4699 9.43591 19.7597 9.85055 19.7668C10.2652 19.7739 10.6979 19.7712 11.1219 19.7668C11.56 19.763 11.8454 19.4721 11.8503 19.0285C11.8536 18.7546 11.8503 18.4807 11.8503 18.2069C11.8553 17.8563 12.0147 17.6443 12.3537 17.5496C12.9796 17.3781 13.5816 17.1288 14.1454 16.8074C14.4778 16.6179 14.7183 16.6546 14.9949 16.9262C15.1899 17.118 15.3783 17.3162 15.5766 17.5047C15.8822 17.7966 16.2826 17.7988 16.585 17.5047C16.8874 17.2105 17.1985 16.9021 17.4981 16.5916C17.7977 16.281 17.7917 15.891 17.4981 15.5832C17.3058 15.38 17.1021 15.1872 16.9065 14.9862C16.6469 14.72 16.6124 14.4778 16.797 14.1519C17.1178 13.588 17.3673 12.9863 17.5397 12.3608C17.6356 12.0136 17.8486 11.858 18.214 11.8542C18.4944 11.8542 18.7743 11.858 19.0548 11.8542C19.1474 11.8554 19.2393 11.8379 19.325 11.8028C19.4107 11.7677 19.4884 11.7158 19.5536 11.65C19.6188 11.5842 19.67 11.5059 19.7043 11.4199C19.7386 11.3339 19.7552 11.2418 19.7531 11.1492C19.7591 10.7187 19.7586 10.2882 19.7531 9.85767C19.7476 9.42715 19.4568 9.1456 19.0252 9.14013C18.7453 9.13629 18.4648 9.14013 18.1849 9.14013C17.8475 9.1341 17.6312 8.97252 17.5419 8.64716C17.3684 8.01473 17.1167 7.40642 16.7926 6.83634C16.6097 6.51372 16.648 6.27161 16.9104 6.00377C17.1015 5.80823 17.2998 5.62035 17.4888 5.42207C17.79 5.10603 17.7906 4.71001 17.4888 4.39835C17.187 4.08669 16.8934 3.79583 16.5905 3.49951C16.2876 3.20318 15.8784 3.19716 15.5673 3.49951C15.375 3.6841 15.1905 3.8769 15.0004 4.06368C14.7156 4.34467 14.4751 4.38301 14.1344 4.18747C13.5768 3.86947 12.9815 3.62252 12.3625 3.4524C12.001 3.35217 11.8498 3.14512 11.8471 2.76445C11.8471 2.49058 11.8503 2.21671 11.8471 1.94284C11.8394 1.52765 11.5491 1.23899 11.1317 1.23406C10.7143 1.22913 10.2844 1.23022 9.86095 1.23406C9.42824 1.23734 9.14013 1.52272 9.13301 1.9516C9.12862 2.23149 9.13301 2.51193 9.13301 2.79237C9.12753 3.14238 8.96869 3.3549 8.62909 3.44966C8.00342 3.62133 7.4017 3.87067 6.83798 4.19185C6.50605 4.38082 6.2645 4.34303 5.98844 4.0719C5.79837 3.88457 5.61323 3.69286 5.42152 3.50773C5.09945 3.19661 4.70125 3.19551 4.38082 3.50773C4.08285 3.79985 3.78817 4.09472 3.49677 4.39233C3.18401 4.71111 3.18401 5.10986 3.49403 5.43303C3.68355 5.62967 3.88183 5.81645 4.07245 6.01418C4.33098 6.28038 4.36549 6.52413 4.182 6.84893C3.86096 7.41298 3.61145 8.01484 3.43926 8.64059C3.3434 8.98895 3.13197 9.14341 2.76499 9.14725C2.48509 9.14999 2.20464 9.14396 1.92475 9.14725C1.52052 9.15546 1.2335 9.44577 1.22529 9.8511C1.22583 10.0598 1.22967 10.2718 1.22967 10.4837Z" fill="white"/>
<path d="M10.5006 5.93584C11.4039 5.93617 12.2868 6.20443 13.0375 6.70667C13.7883 7.20891 14.3732 7.92256 14.7182 8.75731C15.0632 9.59207 15.1529 10.5104 14.9758 11.3962C14.7988 12.2819 14.363 13.0952 13.7235 13.7332C13.0841 14.3711 12.2698 14.8051 11.3837 14.9801C10.4976 15.1552 9.5794 15.0634 8.74543 14.7165C7.91146 14.3695 7.19916 13.783 6.69863 13.0311C6.19811 12.2792 5.93187 11.3957 5.9336 10.4925C5.93411 9.89337 6.05266 9.30021 6.28248 8.74692C6.5123 8.19364 6.84888 7.69105 7.27301 7.26789C7.69714 6.84473 8.20049 6.50929 8.7543 6.28073C9.30811 6.05217 9.90153 5.93498 10.5006 5.93584ZM13.8309 10.4952C13.8295 9.83587 13.6326 9.19175 13.2652 8.64428C12.8977 8.09681 12.3762 7.67059 11.7665 7.41949C11.1569 7.1684 10.4864 7.10371 9.83999 7.2336C9.19356 7.36349 8.60017 7.68214 8.13482 8.14925C7.66947 8.61636 7.35307 9.21096 7.22562 9.85787C7.09817 10.5048 7.16539 11.175 7.41878 11.7837C7.67218 12.3924 8.10037 12.9123 8.64922 13.2777C9.19807 13.6431 9.84294 13.8375 10.5023 13.8364C10.9405 13.8364 11.3743 13.7499 11.779 13.5819C12.1837 13.4138 12.5512 13.1675 12.8604 12.8571C13.1697 12.5466 13.4146 12.1782 13.5812 11.7729C13.7477 11.3676 13.8326 10.9334 13.8309 10.4952Z" fill="white"/>
</svg>
