<svg width="21" height="21" viewBox="0 0 21 21" fill="none" xmlns="http://www.w3.org/2000/svg">
<path d="M20.1611 0C20.2081 0.0231899 20.255 0.0480743 20.3031 0.0684361C20.699 0.238118 20.94 0.529972 20.9462 0.960964C20.9609 1.89723 20.9609 2.8335 20.9462 3.76977C20.9388 4.28277 20.5667 4.66456 20.0548 4.7313C19.9945 4.74328 19.9328 4.74689 19.8715 4.74204C19.2607 4.65211 18.7551 4.86647 18.2562 5.20866C17.5073 5.72167 16.7217 6.17981 15.9513 6.66114C15.8999 6.69338 15.8467 6.72166 15.7562 6.77427C15.8733 6.08423 15.9824 5.42925 16.1001 4.74487H15.3569C14.5814 4.74487 14.1793 4.34499 14.1793 3.5735C14.1793 2.80202 14.198 2.0424 14.1731 1.2777C14.1533 0.647052 14.3784 0.207578 14.9926 0.000566159L20.1611 0ZM16.9066 4.06218C16.8671 4.3003 16.8331 4.50901 16.7986 4.71716C16.7641 4.9253 16.7262 5.14475 16.6855 5.39135C16.7709 5.34441 16.8308 5.31613 16.8863 5.28163C17.2511 5.05539 17.6346 4.85064 17.9756 4.59103C18.5333 4.16513 19.1351 3.97451 19.8376 4.05596C20.1645 4.09329 20.285 3.94963 20.285 3.6244C20.285 2.7907 20.285 1.95719 20.285 1.12386C20.285 0.79298 20.1719 0.680425 19.8427 0.67986C18.3325 0.67986 16.8226 0.67986 15.3128 0.67986C14.9734 0.67986 14.8682 0.784495 14.8676 1.11651C14.8676 1.95021 14.8676 2.78372 14.8676 3.61705C14.8676 3.96094 14.9723 4.06218 15.3241 4.06218H16.9066Z" fill="white"/>
<path d="M17.0129 18.295H9.776C9.96435 18.4681 10.1261 18.6174 10.3009 18.7775C9.68494 19.3431 9.11312 19.8686 8.5362 20.3918C8.09454 20.801 7.50903 21.0192 6.90725 20.9986C6.32581 20.9885 5.7981 20.8018 5.38012 20.394C4.30546 19.3414 3.24721 18.2736 2.18218 17.2114C1.7082 16.7385 1.2346 16.2649 0.76138 15.7905C-0.252186 14.7725 -0.253887 13.3375 0.756851 12.3183C1.23762 11.8341 1.72121 11.3528 2.19745 10.876L4.70309 13.3799C4.66462 13.4218 4.6222 13.4721 4.57639 13.5185C4.1997 13.8958 3.82131 14.2719 3.44518 14.6497C3.23251 14.8635 3.23081 15.0377 3.43952 15.2493C3.79359 15.609 4.14935 15.967 4.52774 16.3488C4.58939 16.1791 4.63634 16.0372 4.68895 15.8963C5.0153 15.0411 5.62842 14.5236 6.5266 14.3516C7.26189 14.2108 8.00227 14.0796 8.81052 13.9308C8.73813 13.829 8.70249 13.738 8.63631 13.6938C7.89854 13.2172 7.36944 12.478 7.15613 11.626C7.14271 11.5884 7.12173 11.5539 7.0945 11.5248C7.06726 11.4956 7.03434 11.4723 6.99775 11.4563C6.39256 11.2301 6.05263 10.7595 6.05093 10.113C6.05093 9.3268 6.04471 8.54061 6.05093 7.75441C6.07129 5.51914 7.7862 3.62888 9.98754 3.41C11.0799 3.29618 12.1754 3.59389 13.0599 4.24493C13.9444 4.89596 14.5543 5.85351 14.7703 6.93033C14.8283 7.23916 14.8573 7.55274 14.8568 7.86697C14.8665 9.15881 14.8619 10.4507 14.8608 11.7425C14.8608 12.4563 14.44 12.8896 13.7251 12.8681C13.3574 12.8567 13.0611 12.902 12.8275 13.2323C12.6991 13.4144 12.4728 13.5264 12.2975 13.678C12.2423 13.7374 12.1937 13.8026 12.1527 13.8726C12.2228 13.9099 12.2896 13.9665 12.3648 13.9806C13.0435 14.1096 13.7222 14.2227 14.401 14.3567C15.3059 14.536 15.9281 15.0637 16.233 15.9348C16.4943 16.6746 16.733 17.4223 16.9813 18.1667C16.992 18.1983 16.9977 18.2311 17.0129 18.295ZM7.76302 16.2922C8.15895 16.6882 8.55147 17.0779 8.93552 17.4749C8.97825 17.5218 9.03087 17.5585 9.08957 17.5825C9.14827 17.6064 9.21158 17.617 9.27488 17.6135C11.4619 17.6093 13.6489 17.6084 15.8359 17.6107H16.0819C15.9083 17.0909 15.7556 16.6039 15.582 16.1243C15.3557 15.5077 14.9078 15.1418 14.2681 15.0185C13.538 14.8778 12.806 14.7459 12.0718 14.6226C12.0243 14.6192 11.9766 14.6255 11.9316 14.6411C11.8866 14.6566 11.8452 14.6811 11.8099 14.7131C11.397 15.109 10.9949 15.5213 10.5888 15.9269C10.5469 15.9687 10.5005 16.0055 10.444 16.0558C9.9915 15.6033 9.55146 15.1508 9.10181 14.7142C9.06681 14.682 9.02567 14.6573 8.98085 14.6414C8.93604 14.6256 8.88849 14.619 8.84105 14.622C8.10728 14.7449 7.3752 14.8769 6.64482 15.0179C5.9955 15.1418 5.55092 15.5196 5.32016 16.1407C5.24663 16.3386 5.19007 16.5434 5.11542 16.7408C5.09499 16.7832 5.09009 16.8314 5.10156 16.8771C5.11304 16.9228 5.14014 16.963 5.17819 16.9908C5.36314 17.1604 5.53735 17.3465 5.71665 17.5253C5.97287 17.7803 6.11258 17.7849 6.37729 17.5439C6.8343 17.1322 7.29187 16.7198 7.76302 16.2922ZM14.1397 8.96368C14.1397 8.38789 14.207 7.80871 14.1267 7.25046C13.9219 5.82965 13.1137 4.8274 11.7777 4.31722C10.4202 3.79969 9.15214 4.03895 8.03733 4.96654C6.77264 6.01914 6.62332 7.4456 6.75907 8.96764L7.06449 8.84829C7.07015 8.72442 7.07581 8.60452 7.08259 8.46142C8.46833 8.54513 9.57126 8.00328 10.4587 6.95351C11.3501 8.01515 12.4621 8.5457 13.8439 8.46368V8.84547L14.1397 8.96368ZM10.4457 7.9422C9.68891 8.64638 8.78563 9.04117 7.74378 9.13789C7.74378 9.7001 7.74378 10.2391 7.74378 10.7781C7.75227 12.4399 9.05203 13.6531 10.7081 13.5338C11.2609 13.4983 11.7819 13.2631 12.1742 12.872H10.4728V12.1899C11.1945 12.1899 11.8976 12.1831 12.6012 12.195C12.7709 12.1978 12.8422 12.1384 12.9061 11.9959C13.0737 11.6356 13.1618 11.2434 13.1646 10.846C13.1646 10.3336 13.1606 9.82057 13.1685 9.30813C13.1685 9.16503 13.1165 9.12262 12.9824 9.10904C12.2864 9.0374 11.6193 8.79237 11.0424 8.39637C10.8394 8.2578 10.6521 8.1 10.4457 7.9422ZM1.34904 12.6933C0.492146 13.4325 0.447464 14.5151 1.25119 15.3205C2.03814 16.1094 2.82565 16.8971 3.61373 17.6836C4.32413 18.3935 5.02774 19.1078 5.74606 19.8126C6.49888 20.5535 7.71041 20.4681 8.30316 19.657L6.77264 18.1174C6.21326 18.4958 5.73588 18.4924 5.32299 18.0835C4.51756 17.2856 3.71572 16.4836 2.91746 15.6774C2.60412 15.3613 2.52154 14.9829 2.69122 14.566C2.74687 14.448 2.81175 14.3345 2.88523 14.2266L1.34904 12.6933ZM9.26074 18.8069L7.71381 17.2509L7.31788 17.6129L8.8767 19.1661L9.26074 18.8069ZM3.72458 13.3958L2.19745 11.8652L1.87279 12.1752L3.40446 13.717L3.72458 13.3958ZM9.52658 14.1248L10.44 15.0343C10.7488 14.7261 11.0724 14.4025 11.3507 14.1254C11.1001 14.1537 10.785 14.2176 10.4666 14.2187C10.1482 14.2199 9.83257 14.1599 9.52658 14.1271V14.1248ZM13.5865 12.1724C14.1555 12.2578 14.2494 12.0157 14.1442 11.3358C14.0118 11.4122 13.8371 11.454 13.776 11.5621C13.6753 11.7414 13.6481 11.9608 13.5865 12.1746V12.1724ZM7.07185 10.7255V9.6096C6.68045 9.75553 6.59052 10.4603 7.07185 10.7278V10.7255ZM13.8529 10.7386C14.0876 10.5689 14.1923 10.3709 14.1759 10.1136C14.1719 10.0064 14.1401 9.90207 14.0834 9.81099C14.0268 9.71991 13.9473 9.64523 13.8529 9.59433V10.7386Z" fill="white"/>
<path d="M1.19363 9.61083L0.00585938 7.63121L0.584473 7.28109C0.793748 7.62894 0.996808 7.96491 1.21457 8.32633C2.06298 5.20475 3.91363 2.97061 6.88024 1.72684C8.95205 0.857506 11.0833 0.80264 13.2637 1.43499C13.1975 1.65275 13.1364 1.85693 13.0719 2.0696C9.97184 1.24268 7.16078 1.77491 4.70096 3.85069C3.29429 5.03846 2.38932 6.55429 1.91478 8.38911L2.83219 7.84443L3.18005 8.42079L1.19363 9.61083Z" fill="white"/>
<path d="M18.8021 7.64307C18.586 7.9994 18.3994 8.30765 18.2003 8.6374L17.6194 8.29408C18.0153 7.63062 18.4112 6.97735 18.8072 6.30994L20.7902 7.49771L20.4423 8.07689L19.4689 7.49601C20.4384 10.7731 19.8937 13.7493 17.8354 16.4778L17.3105 16.0514C19.2257 13.5084 19.7347 10.7307 18.8021 7.64307Z" fill="white"/>
<path d="M19.5839 2.02092H15.5449V1.36877H19.5839V2.02092Z" fill="white"/>
<path d="M18.2355 2.72113V3.37497H15.5449V2.72113H18.2355Z" fill="white"/>
<path d="M19.5871 2.71887V3.3778H18.9395V2.71887H19.5871Z" fill="white"/>
</svg>
