<svg width="20" height="25" viewBox="0 0 20 25" fill="none" xmlns="http://www.w3.org/2000/svg">
<path d="M11.1354 0C11.4124 0.0531309 11.6926 0.0948753 11.9671 0.160656C12.9652 0.391812 13.8796 0.895423 14.6085 1.61543C15.8672 2.85705 17.1227 4.10183 18.3593 5.36559C19.4345 6.46173 19.9892 7.79317 19.993 9.3308C20.0023 13.5446 20.0023 17.7586 19.993 21.9728C19.993 23.277 19.0158 24.2498 17.7122 24.2498C12.5657 24.2536 7.41935 24.2536 2.27324 24.2498C1.27008 24.2498 0.414927 23.6591 0.125869 22.7318C0.0385825 22.4541 0.0626136 22.1417 0.0423733 21.8463C0.0309881 21.6654 0.0284655 21.4832 0.0341581 21.3023C0.0411157 21.0683 0.171407 20.9342 0.376341 20.9304C0.581274 20.9266 0.721704 21.0569 0.736251 21.2884C0.752697 21.556 0.778627 21.828 0.748899 22.0923C0.67363 22.7704 1.34851 23.4978 2.14611 23.5364C2.20936 23.5364 2.27261 23.5364 2.33586 23.5364H17.6566C18.4788 23.5364 19.0955 23.0639 19.2536 22.3055C19.2783 22.1657 19.2885 22.0236 19.284 21.8817C19.284 18.015 19.284 14.1482 19.284 10.2815C19.284 8.66793 18.1297 7.50981 16.5117 7.49842C15.9671 7.49399 15.4225 7.49842 14.8779 7.49842C13.4453 7.49463 12.5085 6.55661 12.501 5.12903C12.4978 4.43327 12.5357 3.7375 12.4573 3.04933C12.3017 1.6869 11.1733 0.724226 9.79317 0.716636C8.2625 0.708413 6.73118 0.716636 5.19987 0.716636C4.24478 0.716636 3.2897 0.716636 2.33461 0.716636C1.34789 0.716636 0.707777 1.358 0.709042 2.34915C0.717476 8.12608 0.727172 13.903 0.738135 19.6799C0.738135 20.0367 0.622395 20.2163 0.383938 20.2169C0.145482 20.2176 0.0284593 20.0449 0.0278268 19.6812C0.0172849 13.8811 0.0080118 8.08096 0 2.28083C0 1.14737 0.732448 0.271347 1.83428 0.0474383C1.8715 0.0366705 1.90787 0.0231384 1.94307 0.00695669L11.1354 0ZM19.0019 7.71663C18.9766 7.64389 18.9545 7.56989 18.926 7.49905C18.6547 6.83279 18.2485 6.22982 17.7331 5.72801C16.5709 4.5701 15.4113 3.4105 14.2543 2.24921C14.1096 2.10384 13.9576 1.96598 13.7989 1.83618C13.3322 1.45341 12.7971 1.16279 12.222 0.979759C12.2657 1.04301 12.2808 1.06641 12.3004 1.08792C12.938 1.78368 13.2264 2.61037 13.2157 3.54965C13.2094 4.12524 13.2087 4.70082 13.2157 5.27641C13.2171 5.67133 13.3733 6.04996 13.6507 6.33104C13.9281 6.61212 14.3047 6.77326 14.6996 6.77988C15.1012 6.7919 15.5041 6.77609 15.9058 6.78621C16.3384 6.79697 16.7755 6.79064 17.2024 6.84946C17.8849 6.9456 18.4662 7.27451 19.0019 7.71917V7.71663Z" fill="white"/>
<path d="M2.1582 6.48257C2.1639 4.06764 3.87863 2.16062 6.24675 1.86208C8.43713 1.58567 10.5775 3.05247 11.1588 5.22831C11.236 5.51736 11.1588 5.71471 10.9482 5.7748C10.7376 5.83488 10.5523 5.71154 10.4776 5.43134C10.2326 4.50055 9.64916 3.69462 8.84146 3.17112C8.03377 2.64762 7.05986 2.44419 6.11015 2.6006C5.16043 2.75702 4.3032 3.26203 3.70605 4.0169C3.1089 4.77177 2.81477 5.72223 2.88116 6.68245C3.02284 8.61856 4.57123 10.1726 6.46054 10.2757C8.48458 10.3864 10.2044 9.03981 10.5535 7.06701C10.5706 6.97403 10.5731 6.87726 10.5953 6.78618C10.644 6.57808 10.7951 6.46992 10.9861 6.49143C11.1772 6.51293 11.3024 6.66284 11.2866 6.87662C11.2445 7.40482 11.1017 7.92009 10.866 8.39465C10.439 9.28599 9.73521 10.0153 8.85959 10.4736C7.98398 10.932 6.98358 11.0947 6.00784 10.9376C5.0321 10.7804 4.13337 10.3119 3.44591 9.60182C2.75845 8.89177 2.31914 7.97838 2.19361 6.99807C2.16831 6.79883 2.16579 6.60212 2.1582 6.48257Z" fill="white"/>
<path d="M10.0133 15.7634H17.2815C17.3599 15.7634 17.4396 15.7634 17.518 15.7672C17.601 15.7735 17.6789 15.8092 17.7379 15.8678C17.7969 15.9265 17.833 16.0043 17.8397 16.0872C17.8464 16.1701 17.8233 16.2527 17.7745 16.3201C17.7258 16.3875 17.6545 16.4352 17.5737 16.4548C17.4888 16.472 17.4021 16.4782 17.3156 16.4731H2.685C2.60618 16.4786 2.527 16.4747 2.44907 16.4617C2.25932 16.4155 2.14673 16.2871 2.16381 16.086C2.16625 16.002 2.20105 15.9222 2.26093 15.8633C2.3208 15.8044 2.40113 15.7709 2.48513 15.7698C2.56356 15.7628 2.64263 15.766 2.72169 15.766L10.0133 15.7634Z" fill="white"/>
<path d="M9.98837 20.4611H2.72083C2.64196 20.4639 2.563 20.4627 2.48427 20.4573C2.28123 20.4358 2.16801 20.3143 2.16041 20.1151C2.15409 19.9253 2.26415 19.8045 2.44694 19.7622C2.52493 19.7497 2.60407 19.7461 2.68287 19.7514H17.3135C17.3767 19.7479 17.44 19.7479 17.5032 19.7514C17.595 19.7569 17.6813 19.797 17.7446 19.8637C17.8079 19.9304 17.8435 20.0187 17.8442 20.1107C17.841 20.3004 17.6993 20.4408 17.4938 20.456C17.4235 20.4617 17.3521 20.456 17.2812 20.456L9.98837 20.4611Z" fill="white"/>
<path d="M10.0023 12.4813H2.75939C2.66479 12.4836 2.57014 12.4798 2.47603 12.4699C2.27299 12.4434 2.15976 12.3169 2.16419 12.1176C2.16862 11.9184 2.28311 11.7976 2.48677 11.7767C2.54988 11.7715 2.61323 11.7698 2.67653 11.7716H17.3286C17.3919 11.7701 17.4553 11.7718 17.5184 11.7767C17.7227 11.7976 17.8384 11.9209 17.8422 12.1176C17.846 12.3143 17.7322 12.4434 17.5298 12.4699C17.4357 12.4797 17.341 12.4835 17.2464 12.4813H10.0023Z" fill="white"/>
<path d="M6.50099 3.16064C7.33464 3.16064 7.87543 3.30992 8.37512 3.6034C8.64646 3.76343 8.68506 4.00442 8.46431 4.22579C7.16176 5.53298 5.85667 6.83764 4.54906 8.13977C4.31629 8.37127 4.08037 8.32953 3.91655 8.03288C3.32262 6.95255 3.30428 5.85577 3.92161 4.78999C4.53894 3.72421 5.51491 3.19354 6.50099 3.16064ZM7.60725 4.03731C6.71668 3.63503 5.49721 3.95255 4.80081 4.75773C4.143 5.51675 4.03294 6.6812 4.37387 7.26817L7.60725 4.03731Z" fill="white"/>
<path d="M6.73231 9.6717C6.16082 9.67211 5.59969 9.51921 5.10739 9.22894C4.8215 9.06259 4.78799 8.82603 5.02202 8.59073C6.31908 7.29029 7.61825 5.99133 8.91954 4.69384C9.15926 4.45538 9.39772 4.49713 9.56596 4.80642C10.1529 5.89055 10.1656 6.98796 9.54447 8.04994C8.92334 9.11193 7.96002 9.63628 6.73231 9.6717ZM5.86767 8.79378C6.79683 9.19099 7.99039 8.87284 8.68805 8.05184C9.29779 7.33457 9.45971 6.19795 9.10108 5.56101L5.86767 8.79378Z" fill="white"/>
<path d="M7.67118 17.2727H12.618C12.7047 17.2727 12.8135 17.2455 12.8711 17.2866C12.9836 17.3644 13.1329 17.4763 13.1449 17.5864C13.157 17.6965 13.0406 17.847 12.9419 17.9374C12.8787 17.9931 12.7471 17.9811 12.6459 17.9811C9.32435 17.9811 6.00284 17.9811 2.68131 17.9811C2.5872 17.984 2.49312 17.974 2.40173 17.9514C2.32661 17.9276 2.26187 17.8789 2.21819 17.8133C2.17451 17.7477 2.15452 17.6692 2.16153 17.5907C2.16853 17.5123 2.20211 17.4385 2.25671 17.3817C2.31132 17.3249 2.38369 17.2885 2.46183 17.2784C2.54049 17.2715 2.61948 17.2694 2.69839 17.272L7.67118 17.2727Z" fill="white"/>
<path d="M6.30292 21.2625H9.90002C9.97088 21.258 10.042 21.2599 10.1125 21.2682C10.2985 21.3023 10.4104 21.4187 10.4155 21.6072C10.4206 21.7957 10.3118 21.9184 10.1302 21.962C10.0522 21.9743 9.97309 21.9777 9.89432 21.9722H2.67548C2.59669 21.9778 2.5175 21.9742 2.43955 21.9614C2.25739 21.9159 2.15238 21.7913 2.16061 21.6015C2.16883 21.4118 2.28079 21.2973 2.46801 21.2669C2.53862 21.2597 2.6097 21.2583 2.68054 21.2625H6.30292Z" fill="white"/>
<path d="M5.58616 13.9817C4.59248 13.9817 3.5988 13.9817 2.60512 13.9817C2.41917 13.9817 2.25725 13.9494 2.18198 13.754C2.16374 13.71 2.15502 13.6627 2.15639 13.6151C2.15776 13.5675 2.1692 13.5208 2.18993 13.4779C2.21066 13.4351 2.24022 13.3971 2.27668 13.3665C2.31314 13.336 2.35567 13.3134 2.40146 13.3004C2.49277 13.2774 2.58693 13.2676 2.68104 13.2713C4.62833 13.2713 6.57603 13.2713 8.52417 13.2713C8.56338 13.2713 8.6026 13.2713 8.64245 13.2713C8.90431 13.284 9.05295 13.4149 9.05169 13.6319C9.05042 13.8488 8.90178 13.9791 8.63739 13.9798C7.62031 13.9827 6.60323 13.9834 5.58616 13.9817Z" fill="white"/>
</svg>
