<svg width="12" height="9" viewBox="0 0 12 9" fill="none" xmlns="http://www.w3.org/2000/svg">
<path d="M0.600361 1.90735e-06H11.4007C11.51 0.00034523 11.6172 0.0305567 11.7107 0.0873842C11.8042 0.144212 11.8804 0.225503 11.9312 0.322508C11.982 0.419514 12.0054 0.52856 11.9989 0.637909C11.9925 0.747257 11.9564 0.852768 11.8945 0.943084L6.49433 8.75702C6.27052 9.08099 5.73171 9.08099 5.5073 8.75702L0.107147 0.943084C0.0446404 0.852957 0.00798496 0.747393 0.00116339 0.637862C-0.00565818 0.528331 0.0176151 0.419022 0.0684546 0.321811C0.119294 0.2246 0.195755 0.143205 0.289531 0.0864697C0.383307 0.0297337 0.49081 -0.000171661 0.600361 1.90735e-06Z" fill="black"/>
</svg>
